G04 #@! TF.GenerationSoftware,KiCad,Pcbnew,7.0.10-7.0.10~ubuntu22.04.1*
G04 #@! TF.CreationDate,2024-01-14T22:23:25+01:00*
G04 #@! TF.ProjectId,pico-GPU,7069636f-2d47-4505-952e-6b696361645f,rev?*
G04 #@! TF.SameCoordinates,Original*
G04 #@! TF.FileFunction,Paste,Top*
G04 #@! TF.FilePolarity,Positive*
%FSLAX46Y46*%
G04 Gerber Fmt 4.6, Leading zero omitted, Abs format (unit mm)*
G04 Created by KiCad (PCBNEW 7.0.10-7.0.10~ubuntu22.04.1) date 2024-01-14 22:23:25*
%MOMM*%
%LPD*%
G01*
G04 APERTURE LIST*
G04 Aperture macros list*
%AMRoundRect*
0 Rectangle with rounded corners*
0 $1 Rounding radius*
0 $2 $3 $4 $5 $6 $7 $8 $9 X,Y pos of 4 corners*
0 Add a 4 corners polygon primitive as box body*
4,1,4,$2,$3,$4,$5,$6,$7,$8,$9,$2,$3,0*
0 Add four circle primitives for the rounded corners*
1,1,$1+$1,$2,$3*
1,1,$1+$1,$4,$5*
1,1,$1+$1,$6,$7*
1,1,$1+$1,$8,$9*
0 Add four rect primitives between the rounded corners*
20,1,$1+$1,$2,$3,$4,$5,0*
20,1,$1+$1,$4,$5,$6,$7,0*
20,1,$1+$1,$6,$7,$8,$9,0*
20,1,$1+$1,$8,$9,$2,$3,0*%
G04 Aperture macros list end*
%ADD10RoundRect,0.218750X-0.218750X-0.256250X0.218750X-0.256250X0.218750X0.256250X-0.218750X0.256250X0*%
%ADD11RoundRect,0.218750X0.218750X0.256250X-0.218750X0.256250X-0.218750X-0.256250X0.218750X-0.256250X0*%
%ADD12RoundRect,0.225000X0.225000X0.250000X-0.225000X0.250000X-0.225000X-0.250000X0.225000X-0.250000X0*%
%ADD13RoundRect,0.200000X0.200000X0.275000X-0.200000X0.275000X-0.200000X-0.275000X0.200000X-0.275000X0*%
%ADD14RoundRect,0.225000X-0.225000X-0.250000X0.225000X-0.250000X0.225000X0.250000X-0.225000X0.250000X0*%
%ADD15R,2.600000X0.300000*%
%ADD16RoundRect,0.250000X-2.050000X-0.300000X2.050000X-0.300000X2.050000X0.300000X-2.050000X0.300000X0*%
%ADD17RoundRect,0.250000X-2.025000X-2.375000X2.025000X-2.375000X2.025000X2.375000X-2.025000X2.375000X0*%
%ADD18RoundRect,0.200000X-0.200000X-0.275000X0.200000X-0.275000X0.200000X0.275000X-0.200000X0.275000X0*%
G04 APERTURE END LIST*
D10*
X126337500Y-180625000D03*
X127912500Y-180625000D03*
D11*
X124912500Y-180625000D03*
X123337500Y-180625000D03*
D12*
X75294999Y-165315000D03*
X73744999Y-165315000D03*
D13*
X116620000Y-184075000D03*
X114970000Y-184075000D03*
X86490000Y-140385000D03*
X84840000Y-140385000D03*
D14*
X70590000Y-160965000D03*
X72140000Y-160965000D03*
D13*
X115810000Y-182275000D03*
X114160000Y-182275000D03*
X86425000Y-150635000D03*
X84775000Y-150635000D03*
X86415000Y-149085000D03*
X84765000Y-149085000D03*
X86415000Y-147535000D03*
X84765000Y-147535000D03*
X86520000Y-137225000D03*
X84870000Y-137225000D03*
D12*
X128859999Y-173110000D03*
X127309999Y-173110000D03*
D14*
X127585000Y-164040000D03*
X129135000Y-164040000D03*
X127575000Y-165710000D03*
X129125000Y-165710000D03*
D13*
X86410000Y-152215000D03*
X84760000Y-152215000D03*
D15*
X75635000Y-152415000D03*
X75635000Y-151915000D03*
X75635000Y-151415000D03*
X75635000Y-150915000D03*
X75635000Y-150415000D03*
X75635000Y-149915000D03*
X75635000Y-149415000D03*
X75635000Y-148915000D03*
X75635000Y-148415000D03*
X75635000Y-147915000D03*
X75635000Y-147415000D03*
X75635000Y-146915000D03*
X75635000Y-146415000D03*
X75635000Y-145915000D03*
X75635000Y-145415000D03*
X75635000Y-144915000D03*
X75635000Y-144415000D03*
X75635000Y-143915000D03*
X75635000Y-143415000D03*
D13*
X86420000Y-142875000D03*
X84770000Y-142875000D03*
D14*
X70495000Y-165355000D03*
X72045000Y-165355000D03*
D13*
X86405000Y-153795000D03*
X84755000Y-153795000D03*
X86510000Y-138805000D03*
X84860000Y-138805000D03*
X86410000Y-144425000D03*
X84760000Y-144425000D03*
X86420000Y-145965000D03*
X84770000Y-145965000D03*
D16*
X132610000Y-168080000D03*
X132610000Y-170620000D03*
D17*
X139335000Y-167845000D03*
X139335000Y-173395000D03*
X144185000Y-167845000D03*
X144185000Y-173395000D03*
D16*
X132610000Y-173160000D03*
D18*
X135730000Y-163920000D03*
X137380000Y-163920000D03*
M02*
