G04 #@! TF.GenerationSoftware,KiCad,Pcbnew,7.0.10-7.0.10~ubuntu22.04.1*
G04 #@! TF.CreationDate,2024-01-14T22:23:25+01:00*
G04 #@! TF.ProjectId,pico-GPU,7069636f-2d47-4505-952e-6b696361645f,rev?*
G04 #@! TF.SameCoordinates,Original*
G04 #@! TF.FileFunction,Copper,L2,Bot*
G04 #@! TF.FilePolarity,Positive*
%FSLAX46Y46*%
G04 Gerber Fmt 4.6, Leading zero omitted, Abs format (unit mm)*
G04 Created by KiCad (PCBNEW 7.0.10-7.0.10~ubuntu22.04.1) date 2024-01-14 22:23:25*
%MOMM*%
%LPD*%
G01*
G04 APERTURE LIST*
G04 Aperture macros list*
%AMRoundRect*
0 Rectangle with rounded corners*
0 $1 Rounding radius*
0 $2 $3 $4 $5 $6 $7 $8 $9 X,Y pos of 4 corners*
0 Add a 4 corners polygon primitive as box body*
4,1,4,$2,$3,$4,$5,$6,$7,$8,$9,$2,$3,0*
0 Add four circle primitives for the rounded corners*
1,1,$1+$1,$2,$3*
1,1,$1+$1,$4,$5*
1,1,$1+$1,$6,$7*
1,1,$1+$1,$8,$9*
0 Add four rect primitives between the rounded corners*
20,1,$1+$1,$2,$3,$4,$5,0*
20,1,$1+$1,$4,$5,$6,$7,0*
20,1,$1+$1,$6,$7,$8,$9,0*
20,1,$1+$1,$8,$9,$2,$3,0*%
G04 Aperture macros list end*
G04 #@! TA.AperFunction,ConnectorPad*
%ADD10R,0.700000X4.200000*%
G04 #@! TD*
G04 #@! TA.AperFunction,ConnectorPad*
%ADD11R,0.700000X3.200000*%
G04 #@! TD*
G04 #@! TA.AperFunction,ComponentPad*
%ADD12R,1.905000X2.000000*%
G04 #@! TD*
G04 #@! TA.AperFunction,ComponentPad*
%ADD13O,1.905000X2.000000*%
G04 #@! TD*
G04 #@! TA.AperFunction,ComponentPad*
%ADD14O,3.300000X1.500000*%
G04 #@! TD*
G04 #@! TA.AperFunction,ComponentPad*
%ADD15O,2.300000X1.500000*%
G04 #@! TD*
G04 #@! TA.AperFunction,ComponentPad*
%ADD16O,1.700000X1.700000*%
G04 #@! TD*
G04 #@! TA.AperFunction,ComponentPad*
%ADD17R,1.700000X1.700000*%
G04 #@! TD*
G04 #@! TA.AperFunction,SMDPad,CuDef*
%ADD18RoundRect,0.218750X-0.256250X0.218750X-0.256250X-0.218750X0.256250X-0.218750X0.256250X0.218750X0*%
G04 #@! TD*
G04 #@! TA.AperFunction,SMDPad,CuDef*
%ADD19RoundRect,0.218750X0.256250X-0.218750X0.256250X0.218750X-0.256250X0.218750X-0.256250X-0.218750X0*%
G04 #@! TD*
G04 #@! TA.AperFunction,ViaPad*
%ADD20C,0.450000*%
G04 #@! TD*
G04 #@! TA.AperFunction,Conductor*
%ADD21C,0.500000*%
G04 #@! TD*
G04 #@! TA.AperFunction,Conductor*
%ADD22C,0.250000*%
G04 #@! TD*
G04 #@! TA.AperFunction,Conductor*
%ADD23C,1.000000*%
G04 #@! TD*
G04 #@! TA.AperFunction,Conductor*
%ADD24C,0.088900*%
G04 #@! TD*
G04 #@! TA.AperFunction,Conductor*
%ADD25C,0.150000*%
G04 #@! TD*
G04 APERTURE END LIST*
D10*
X129125000Y-190625000D03*
X128125000Y-190625000D03*
X127125000Y-190625000D03*
X126125000Y-190625000D03*
X125125000Y-190625000D03*
X124125000Y-190625000D03*
X123125000Y-190625000D03*
X120125000Y-190625000D03*
X119125000Y-190625000D03*
X118125000Y-190625000D03*
X117125000Y-190625000D03*
X116125000Y-190625000D03*
X115125000Y-190625000D03*
X114125000Y-190625000D03*
X113125000Y-190625000D03*
X112125000Y-190625000D03*
X111125000Y-190625000D03*
D11*
X110125000Y-190125000D03*
D12*
X74455000Y-169185000D03*
D13*
X71915000Y-169185000D03*
X69375000Y-169185000D03*
D14*
X74875000Y-155165000D03*
X74875000Y-140665000D03*
D15*
X68915000Y-155165000D03*
X68915000Y-140665000D03*
D16*
X100615000Y-149360000D03*
D17*
X100615000Y-146820000D03*
D16*
X100615000Y-144280000D03*
X148645000Y-155710000D03*
X146105000Y-155710000D03*
D17*
X143565000Y-155710000D03*
D16*
X141025000Y-155710000D03*
X138485000Y-155710000D03*
X135945000Y-155710000D03*
X133405000Y-155710000D03*
D17*
X130865000Y-155710000D03*
D16*
X128325000Y-155710000D03*
X125785000Y-155710000D03*
X123245000Y-155710000D03*
X120705000Y-155710000D03*
D17*
X118165000Y-155710000D03*
D16*
X115625000Y-155710000D03*
X113085000Y-155710000D03*
X110545000Y-155710000D03*
X108005000Y-155710000D03*
D17*
X105465000Y-155710000D03*
D16*
X102925000Y-155710000D03*
X100385000Y-155710000D03*
X100385000Y-137930000D03*
X102925000Y-137930000D03*
D17*
X105465000Y-137930000D03*
D16*
X108005000Y-137930000D03*
X110545000Y-137930000D03*
X113085000Y-137930000D03*
X115625000Y-137930000D03*
D17*
X118165000Y-137930000D03*
D16*
X120705000Y-137930000D03*
X123245000Y-137930000D03*
X125785000Y-137930000D03*
X128325000Y-137930000D03*
D17*
X130865000Y-137930000D03*
D16*
X133405000Y-137930000D03*
X135945000Y-137930000D03*
X138485000Y-137930000D03*
X141025000Y-137930000D03*
D17*
X143565000Y-137930000D03*
D16*
X146105000Y-137930000D03*
X148645000Y-137930000D03*
D18*
X126875000Y-182337500D03*
X126875000Y-183912500D03*
D19*
X128375000Y-183912500D03*
X128375000Y-182337500D03*
D20*
X128915000Y-178355000D03*
X78637000Y-146373000D03*
X89813000Y-151453000D03*
X117753000Y-180917000D03*
X122575000Y-183625000D03*
X88289000Y-151453000D03*
X86765000Y-141801000D03*
X88289000Y-143833000D03*
X114197000Y-178377000D03*
X84705000Y-141675000D03*
X81177000Y-147897000D03*
X111149000Y-183457000D03*
X111149000Y-185489000D03*
X117125000Y-184981000D03*
X117125000Y-185997000D03*
X115721000Y-179901000D03*
X114125000Y-185489000D03*
X90829000Y-139769000D03*
X114970000Y-181668000D03*
X91337000Y-138753000D03*
X116737000Y-179901000D03*
D21*
X105465000Y-141970000D02*
X100615000Y-146820000D01*
X90438000Y-138128000D02*
X86765000Y-141801000D01*
D22*
X126125000Y-190625000D02*
X126125000Y-188275000D01*
D21*
X106715000Y-154460000D02*
X116915000Y-154460000D01*
X118165000Y-137930000D02*
X116915000Y-139180000D01*
D22*
X129175000Y-190575000D02*
X129175000Y-178623000D01*
X128915000Y-178363000D02*
X128915000Y-178355000D01*
X125626000Y-186676000D02*
X122575000Y-183625000D01*
D23*
X130865000Y-155710000D02*
X132303900Y-154271100D01*
D21*
X118165000Y-162405000D02*
X117645000Y-162925000D01*
X91595884Y-138128000D02*
X90438000Y-138128000D01*
D24*
X68915000Y-140665000D02*
X74875000Y-140665000D01*
D21*
X100615000Y-146820000D02*
X105465000Y-151670000D01*
D23*
X132303900Y-154271100D02*
X142126100Y-154271100D01*
D21*
X130865000Y-137930000D02*
X129615000Y-139180000D01*
D22*
X113125000Y-186053000D02*
X113181000Y-185997000D01*
X128915000Y-178355000D02*
X128907000Y-178355000D01*
D21*
X91962000Y-153305000D02*
X91962000Y-138494116D01*
X116915000Y-139180000D02*
X106715000Y-139180000D01*
X106715000Y-139180000D02*
X105465000Y-137930000D01*
X105465000Y-151670000D02*
X105465000Y-155710000D01*
X105465000Y-137930000D02*
X105465000Y-141970000D01*
D23*
X142126100Y-154271100D02*
X143565000Y-155710000D01*
D22*
X128907000Y-178355000D02*
X128929000Y-178377000D01*
X113125000Y-190625000D02*
X113125000Y-186053000D01*
X129175000Y-178623000D02*
X128915000Y-178363000D01*
D24*
X68915000Y-155165000D02*
X74875000Y-155165000D01*
D21*
X129615000Y-139180000D02*
X119415000Y-139180000D01*
X101582000Y-162925000D02*
X91962000Y-153305000D01*
D22*
X126125000Y-188275000D02*
X125626000Y-187776000D01*
D21*
X116915000Y-154460000D02*
X118165000Y-155710000D01*
D22*
X125626000Y-187776000D02*
X125626000Y-186676000D01*
D25*
X123125000Y-190625000D02*
X123125000Y-184175000D01*
D21*
X105465000Y-155710000D02*
X106715000Y-154460000D01*
X117645000Y-162925000D02*
X101582000Y-162925000D01*
X91962000Y-138494116D02*
X91595884Y-138128000D01*
X118165000Y-155710000D02*
X118165000Y-162405000D01*
D25*
X123125000Y-184175000D02*
X122575000Y-183625000D01*
D22*
X129125000Y-190625000D02*
X129175000Y-190575000D01*
D21*
X119415000Y-139180000D02*
X118165000Y-137930000D01*
D22*
X112125000Y-190625000D02*
X112125000Y-184433000D01*
X112125000Y-184433000D02*
X111149000Y-183457000D01*
X111125000Y-190625000D02*
X111125000Y-185513000D01*
X111125000Y-185513000D02*
X111149000Y-185489000D01*
X118125000Y-186997000D02*
X117125000Y-185997000D01*
X119125000Y-186981000D02*
X117125000Y-184981000D01*
X118125000Y-190625000D02*
X118125000Y-186997000D01*
X119125000Y-190625000D02*
X119125000Y-186981000D01*
X90829000Y-139769000D02*
X90937000Y-139877000D01*
X90937000Y-139877000D02*
X90937000Y-139938100D01*
D21*
X115721000Y-179901000D02*
X122056100Y-173565900D01*
D22*
X90829000Y-139769000D02*
X90998100Y-139938100D01*
D21*
X122056100Y-173565900D02*
X122056100Y-149278900D01*
D22*
X90998100Y-139938100D02*
X90998100Y-158226100D01*
X114125000Y-181353000D02*
X114125000Y-185489000D01*
X90998100Y-158226100D02*
X114125000Y-181353000D01*
D21*
X122056100Y-149278900D02*
X133405000Y-137930000D01*
D22*
X91337000Y-138753000D02*
X91337000Y-158035000D01*
D21*
X122833000Y-158565000D02*
X124596100Y-156801900D01*
X116737000Y-179901000D02*
X122833000Y-173805000D01*
D22*
X91337000Y-158035000D02*
X114970000Y-181668000D01*
D21*
X124596100Y-156801900D02*
X124596100Y-149278900D01*
X122833000Y-173805000D02*
X122833000Y-158565000D01*
X124596100Y-149278900D02*
X135945000Y-137930000D01*
X127125000Y-184162500D02*
X126875000Y-183912500D01*
X127125000Y-190625000D02*
X127125000Y-184162500D01*
X128125000Y-190625000D02*
X128125000Y-184162500D01*
X128125000Y-184162500D02*
X128375000Y-183912500D01*
G04 #@! TA.AperFunction,Conductor*
G36*
X150307539Y-125655185D02*
G01*
X150353294Y-125707989D01*
X150364500Y-125759500D01*
X150364500Y-180850500D01*
X150344815Y-180917539D01*
X150292011Y-180963294D01*
X150240500Y-180974500D01*
X129816275Y-180974500D01*
X129796879Y-180972973D01*
X129775000Y-180969508D01*
X129774998Y-180969508D01*
X129743481Y-180974500D01*
X129743480Y-180974500D01*
X129649699Y-180989352D01*
X129649698Y-180989352D01*
X129574337Y-181027751D01*
X129536658Y-181046950D01*
X129536657Y-181046951D01*
X129536652Y-181046954D01*
X129446954Y-181136652D01*
X129446951Y-181136657D01*
X129389352Y-181249698D01*
X129389352Y-181249699D01*
X129369508Y-181374996D01*
X129369508Y-181375000D01*
X129372973Y-181396876D01*
X129374500Y-181416275D01*
X129374500Y-181534151D01*
X129354815Y-181601190D01*
X129302011Y-181646945D01*
X129232853Y-181656889D01*
X129169297Y-181627864D01*
X129162819Y-181621832D01*
X129085388Y-181544401D01*
X129085387Y-181544400D01*
X128940692Y-181455151D01*
X128779314Y-181401676D01*
X128779311Y-181401675D01*
X128779312Y-181401675D01*
X128679712Y-181391500D01*
X128070296Y-181391500D01*
X128070280Y-181391501D01*
X127970684Y-181401676D01*
X127809310Y-181455150D01*
X127809305Y-181455152D01*
X127690097Y-181528681D01*
X127622704Y-181547121D01*
X127559903Y-181528681D01*
X127440694Y-181455152D01*
X127440689Y-181455150D01*
X127439250Y-181454673D01*
X127279314Y-181401676D01*
X127279311Y-181401675D01*
X127279312Y-181401675D01*
X127179712Y-181391500D01*
X126570296Y-181391500D01*
X126570280Y-181391501D01*
X126470684Y-181401676D01*
X126309310Y-181455150D01*
X126309305Y-181455152D01*
X126164611Y-181544401D01*
X126044401Y-181664611D01*
X125955152Y-181809305D01*
X125955150Y-181809310D01*
X125901675Y-181970689D01*
X125891500Y-182070281D01*
X125891500Y-182604703D01*
X125891501Y-182604719D01*
X125901676Y-182704315D01*
X125955150Y-182865689D01*
X125955152Y-182865694D01*
X125972575Y-182893941D01*
X126036005Y-182996777D01*
X126044401Y-183010388D01*
X126071332Y-183037319D01*
X126104817Y-183098642D01*
X126099833Y-183168334D01*
X126071332Y-183212681D01*
X126044401Y-183239611D01*
X125955152Y-183384305D01*
X125955150Y-183384310D01*
X125901675Y-183545689D01*
X125891500Y-183645281D01*
X125891500Y-184179703D01*
X125891501Y-184179719D01*
X125901676Y-184279315D01*
X125955150Y-184440689D01*
X125955152Y-184440694D01*
X125987471Y-184493091D01*
X126044400Y-184585387D01*
X126164613Y-184705600D01*
X126307598Y-184793794D01*
X126354321Y-184845741D01*
X126366500Y-184899332D01*
X126366500Y-188029000D01*
X125875000Y-188029000D01*
X125875000Y-188025000D01*
X125727172Y-188025000D01*
X125696570Y-188028290D01*
X125683315Y-188029000D01*
X125622632Y-188029000D01*
X125592067Y-188023485D01*
X125591758Y-188024796D01*
X125584202Y-188023011D01*
X125523654Y-188016500D01*
X125523638Y-188016500D01*
X124726362Y-188016500D01*
X124726345Y-188016500D01*
X124665797Y-188023011D01*
X124658242Y-188024796D01*
X124657932Y-188023485D01*
X124627368Y-188029000D01*
X124622632Y-188029000D01*
X124592067Y-188023485D01*
X124591758Y-188024796D01*
X124584202Y-188023011D01*
X124523654Y-188016500D01*
X124523638Y-188016500D01*
X123726362Y-188016500D01*
X123726345Y-188016500D01*
X123665797Y-188023011D01*
X123658242Y-188024796D01*
X123657932Y-188023485D01*
X123627368Y-188029000D01*
X123566685Y-188029000D01*
X123553430Y-188028290D01*
X123522828Y-188025000D01*
X123375000Y-188025000D01*
X123375000Y-188029000D01*
X122975500Y-188029000D01*
X122975500Y-186563095D01*
X122972295Y-186543890D01*
X122938661Y-186342336D01*
X122865990Y-186130651D01*
X122821396Y-186048248D01*
X122759471Y-185933820D01*
X122759465Y-185933811D01*
X122622005Y-185757203D01*
X122622002Y-185757200D01*
X122622000Y-185757197D01*
X122457337Y-185605614D01*
X122457334Y-185605612D01*
X122269969Y-185483199D01*
X122101781Y-185409426D01*
X122065009Y-185393297D01*
X121848047Y-185338354D01*
X121848039Y-185338352D01*
X121625006Y-185319872D01*
X121624994Y-185319872D01*
X121401960Y-185338352D01*
X121401952Y-185338354D01*
X121184990Y-185393297D01*
X121184988Y-185393298D01*
X120980030Y-185483199D01*
X120792665Y-185605612D01*
X120792661Y-185605615D01*
X120627997Y-185757200D01*
X120627994Y-185757203D01*
X120490534Y-185933811D01*
X120490528Y-185933820D01*
X120384013Y-186130644D01*
X120384008Y-186130654D01*
X120311339Y-186342333D01*
X120291771Y-186459595D01*
X120277771Y-186543496D01*
X120274500Y-186563095D01*
X120274500Y-187892500D01*
X120254815Y-187959539D01*
X120202011Y-188005294D01*
X120150500Y-188016500D01*
X119882500Y-188016500D01*
X119815461Y-187996815D01*
X119769706Y-187944011D01*
X119758500Y-187892500D01*
X119758500Y-187064631D01*
X119760238Y-187048881D01*
X119759968Y-187048856D01*
X119760701Y-187041094D01*
X119760702Y-187041091D01*
X119758561Y-186972981D01*
X119758500Y-186969085D01*
X119758500Y-186941146D01*
X119758500Y-186941144D01*
X119757981Y-186937041D01*
X119757064Y-186925389D01*
X119755673Y-186881110D01*
X119755672Y-186881108D01*
X119749979Y-186861514D01*
X119746032Y-186842457D01*
X119743474Y-186822203D01*
X119727162Y-186781004D01*
X119723377Y-186769950D01*
X119720904Y-186761437D01*
X119711018Y-186727407D01*
X119700622Y-186709829D01*
X119692066Y-186692362D01*
X119685192Y-186675000D01*
X119684552Y-186673383D01*
X119658510Y-186637539D01*
X119652099Y-186627781D01*
X119629542Y-186589638D01*
X119615108Y-186575204D01*
X119602471Y-186560409D01*
X119590472Y-186543893D01*
X119590469Y-186543891D01*
X119590469Y-186543890D01*
X119556325Y-186515643D01*
X119547685Y-186507781D01*
X117858177Y-184818272D01*
X117828816Y-184771545D01*
X117824226Y-184758428D01*
X117790042Y-184660733D01*
X117787532Y-184656739D01*
X117702101Y-184520776D01*
X117585223Y-184403898D01*
X117445268Y-184315958D01*
X117289246Y-184261364D01*
X117125004Y-184242859D01*
X117124996Y-184242859D01*
X116960753Y-184261364D01*
X116804731Y-184315958D01*
X116664776Y-184403898D01*
X116547898Y-184520776D01*
X116459958Y-184660731D01*
X116405364Y-184816753D01*
X116386859Y-184980996D01*
X116386859Y-184981003D01*
X116405364Y-185145246D01*
X116459958Y-185301268D01*
X116536465Y-185423028D01*
X116555465Y-185490265D01*
X116536465Y-185554972D01*
X116459958Y-185676731D01*
X116405364Y-185832753D01*
X116386859Y-185996996D01*
X116386859Y-185997003D01*
X116405364Y-186161246D01*
X116459958Y-186317268D01*
X116513178Y-186401966D01*
X116547898Y-186457223D01*
X116664777Y-186574102D01*
X116716792Y-186606785D01*
X116804732Y-186662042D01*
X116804735Y-186662042D01*
X116809671Y-186663770D01*
X116915549Y-186700819D01*
X116962275Y-186730179D01*
X117455181Y-187223085D01*
X117488666Y-187284408D01*
X117491500Y-187310766D01*
X117491500Y-187892500D01*
X117471815Y-187959539D01*
X117419011Y-188005294D01*
X117367500Y-188016500D01*
X116726345Y-188016500D01*
X116665797Y-188023011D01*
X116658242Y-188024796D01*
X116657932Y-188023485D01*
X116627368Y-188029000D01*
X116622632Y-188029000D01*
X116592067Y-188023485D01*
X116591758Y-188024796D01*
X116584202Y-188023011D01*
X116523654Y-188016500D01*
X116523638Y-188016500D01*
X115726362Y-188016500D01*
X115726345Y-188016500D01*
X115665797Y-188023011D01*
X115658242Y-188024796D01*
X115657932Y-188023485D01*
X115627368Y-188029000D01*
X115622632Y-188029000D01*
X115592067Y-188023485D01*
X115591758Y-188024796D01*
X115584202Y-188023011D01*
X115523654Y-188016500D01*
X115523638Y-188016500D01*
X114726362Y-188016500D01*
X114726345Y-188016500D01*
X114665797Y-188023011D01*
X114658242Y-188024796D01*
X114657932Y-188023485D01*
X114627368Y-188029000D01*
X114622632Y-188029000D01*
X114592067Y-188023485D01*
X114591758Y-188024796D01*
X114584202Y-188023011D01*
X114523654Y-188016500D01*
X114523638Y-188016500D01*
X113726362Y-188016500D01*
X113726345Y-188016500D01*
X113665797Y-188023011D01*
X113658242Y-188024796D01*
X113657932Y-188023485D01*
X113627368Y-188029000D01*
X113566685Y-188029000D01*
X113553430Y-188028290D01*
X113522828Y-188025000D01*
X113262500Y-188025000D01*
X113195461Y-188005315D01*
X113149706Y-187952511D01*
X113138500Y-187901000D01*
X113138500Y-187624010D01*
X113138500Y-187624000D01*
X113126764Y-187514843D01*
X113115558Y-187463332D01*
X113115453Y-187463017D01*
X113080893Y-187359179D01*
X113080890Y-187359173D01*
X113001871Y-187236218D01*
X113001865Y-187236211D01*
X112956120Y-187183418D01*
X112956117Y-187183415D01*
X112845666Y-187087706D01*
X112845656Y-187087700D01*
X112830982Y-187080998D01*
X112778181Y-187035241D01*
X112758500Y-186968207D01*
X112758500Y-184516626D01*
X112760238Y-184500881D01*
X112759967Y-184500856D01*
X112760701Y-184493093D01*
X112758561Y-184424999D01*
X112758500Y-184421104D01*
X112758500Y-184393150D01*
X112758500Y-184393144D01*
X112757980Y-184389031D01*
X112757064Y-184377389D01*
X112756482Y-184358874D01*
X112755673Y-184333110D01*
X112749977Y-184313508D01*
X112746032Y-184294457D01*
X112743474Y-184274203D01*
X112727165Y-184233011D01*
X112723380Y-184221958D01*
X112722284Y-184218186D01*
X112711018Y-184179406D01*
X112700625Y-184161833D01*
X112692063Y-184144355D01*
X112692023Y-184144255D01*
X112684552Y-184125383D01*
X112684550Y-184125380D01*
X112684549Y-184125378D01*
X112658512Y-184089541D01*
X112652098Y-184079778D01*
X112647842Y-184072581D01*
X112629542Y-184041637D01*
X112615108Y-184027203D01*
X112602469Y-184012406D01*
X112600773Y-184010072D01*
X112590472Y-183995893D01*
X112556336Y-183967653D01*
X112547696Y-183959791D01*
X111882177Y-183294272D01*
X111852816Y-183247545D01*
X111852447Y-183246491D01*
X111814042Y-183136733D01*
X111802793Y-183118831D01*
X111751576Y-183037319D01*
X111726102Y-182996777D01*
X111609223Y-182879898D01*
X111595652Y-182871371D01*
X111469268Y-182791958D01*
X111313246Y-182737364D01*
X111149004Y-182718859D01*
X111148996Y-182718859D01*
X110984753Y-182737364D01*
X110828731Y-182791958D01*
X110688776Y-182879898D01*
X110571898Y-182996776D01*
X110483958Y-183136731D01*
X110429364Y-183292753D01*
X110410859Y-183456996D01*
X110410859Y-183457003D01*
X110429364Y-183621246D01*
X110483958Y-183777268D01*
X110541248Y-183868444D01*
X110571898Y-183917223D01*
X110688777Y-184034102D01*
X110700766Y-184041635D01*
X110828732Y-184122042D01*
X110828736Y-184122043D01*
X110939549Y-184160819D01*
X110986275Y-184190179D01*
X111346908Y-184550812D01*
X111380393Y-184612135D01*
X111375409Y-184681827D01*
X111333537Y-184737760D01*
X111268073Y-184762177D01*
X111245345Y-184761713D01*
X111149005Y-184750859D01*
X111148996Y-184750859D01*
X110984753Y-184769364D01*
X110828731Y-184823958D01*
X110688776Y-184911898D01*
X110571898Y-185028776D01*
X110483958Y-185168731D01*
X110429364Y-185324753D01*
X110410859Y-185488996D01*
X110410859Y-185489000D01*
X110429364Y-185653246D01*
X110429365Y-185653251D01*
X110429366Y-185653252D01*
X110465738Y-185757197D01*
X110484542Y-185810936D01*
X110491500Y-185851890D01*
X110491500Y-186971692D01*
X110471815Y-187038731D01*
X110434540Y-187076007D01*
X110361218Y-187123128D01*
X110361211Y-187123134D01*
X110308418Y-187168879D01*
X110308415Y-187168882D01*
X110212705Y-187279335D01*
X110212701Y-187279341D01*
X110151987Y-187412283D01*
X110132300Y-187479328D01*
X110122238Y-187549315D01*
X110093213Y-187612870D01*
X110034435Y-187650645D01*
X109964566Y-187650645D01*
X109905787Y-187612871D01*
X109876762Y-187549315D01*
X109875500Y-187531668D01*
X109875500Y-183054139D01*
X109875500Y-183054133D01*
X109837421Y-182764895D01*
X109761915Y-182483102D01*
X109650273Y-182213575D01*
X109650271Y-182213572D01*
X109650269Y-182213567D01*
X109567547Y-182070290D01*
X109504406Y-181960926D01*
X109326810Y-181729478D01*
X109326805Y-181729472D01*
X109120527Y-181523194D01*
X109120520Y-181523188D01*
X108889078Y-181345597D01*
X108889077Y-181345596D01*
X108889074Y-181345594D01*
X108788343Y-181287437D01*
X108636432Y-181199730D01*
X108636415Y-181199722D01*
X108366896Y-181088084D01*
X108226001Y-181050332D01*
X108085105Y-181012579D01*
X108085099Y-181012578D01*
X108085094Y-181012577D01*
X107795876Y-180974501D01*
X107795873Y-180974500D01*
X107795867Y-180974500D01*
X107504133Y-180974500D01*
X107504127Y-180974500D01*
X107504123Y-180974501D01*
X107214905Y-181012577D01*
X107214898Y-181012578D01*
X107214895Y-181012579D01*
X107155342Y-181028536D01*
X106933103Y-181088084D01*
X106663584Y-181199722D01*
X106663567Y-181199730D01*
X106410921Y-181345597D01*
X106179479Y-181523188D01*
X106179472Y-181523194D01*
X105973194Y-181729472D01*
X105973188Y-181729479D01*
X105795597Y-181960921D01*
X105649730Y-182213567D01*
X105649722Y-182213584D01*
X105538084Y-182483103D01*
X105505502Y-182604703D01*
X105464940Y-182756086D01*
X105462580Y-182764892D01*
X105462577Y-182764905D01*
X105424501Y-183054123D01*
X105424500Y-183054139D01*
X105424500Y-185365000D01*
X105404815Y-185432039D01*
X105352011Y-185477794D01*
X105300500Y-185489000D01*
X98349500Y-185489000D01*
X98282461Y-185469315D01*
X98236706Y-185416511D01*
X98225500Y-185365000D01*
X98225500Y-181416275D01*
X98227027Y-181396876D01*
X98230492Y-181375000D01*
X98230492Y-181374996D01*
X98210647Y-181249699D01*
X98210647Y-181249698D01*
X98189287Y-181207777D01*
X98153050Y-181136658D01*
X98153046Y-181136654D01*
X98153045Y-181136652D01*
X98063347Y-181046954D01*
X98063344Y-181046952D01*
X98063342Y-181046950D01*
X97950304Y-180989354D01*
X97950303Y-180989353D01*
X97950300Y-180989352D01*
X97856520Y-180974500D01*
X97856519Y-180974500D01*
X97825002Y-180969508D01*
X97825000Y-180969508D01*
X97803120Y-180972973D01*
X97783725Y-180974500D01*
X79516275Y-180974500D01*
X79496879Y-180972973D01*
X79475000Y-180969508D01*
X79474998Y-180969508D01*
X79443481Y-180974500D01*
X79443480Y-180974500D01*
X79349699Y-180989352D01*
X79349698Y-180989352D01*
X79274337Y-181027751D01*
X79236658Y-181046950D01*
X79236657Y-181046951D01*
X79236652Y-181046954D01*
X79146954Y-181136652D01*
X79146951Y-181136657D01*
X79089352Y-181249698D01*
X79089352Y-181249699D01*
X79069508Y-181374996D01*
X79069508Y-181375000D01*
X79072973Y-181396876D01*
X79074500Y-181416275D01*
X79074500Y-189100500D01*
X79054815Y-189167539D01*
X79002011Y-189213294D01*
X78950500Y-189224500D01*
X64999500Y-189224500D01*
X64932461Y-189204815D01*
X64886706Y-189152011D01*
X64875500Y-189100500D01*
X64875500Y-184985000D01*
X69651654Y-184985000D01*
X69653626Y-185015090D01*
X69653822Y-185027339D01*
X69652709Y-185060635D01*
X69652709Y-185060645D01*
X69663690Y-185169801D01*
X69664047Y-185174101D01*
X69671016Y-185280422D01*
X69671017Y-185280429D01*
X69677548Y-185313267D01*
X69679307Y-185325038D01*
X69682976Y-185361500D01*
X69707640Y-185464997D01*
X69708635Y-185469548D01*
X69716630Y-185509738D01*
X69728776Y-185570797D01*
X69728779Y-185570807D01*
X69728780Y-185570809D01*
X69740604Y-185605645D01*
X69743806Y-185616752D01*
X69753072Y-185655632D01*
X69753075Y-185655641D01*
X69790117Y-185751818D01*
X69791822Y-185756527D01*
X69823936Y-185851133D01*
X69823938Y-185851139D01*
X69841688Y-185887134D01*
X69846187Y-185897405D01*
X69861748Y-185937806D01*
X69909695Y-186025298D01*
X69912165Y-186030046D01*
X69954885Y-186116674D01*
X69979028Y-186152808D01*
X69984664Y-186162101D01*
X70007064Y-186202974D01*
X70007071Y-186202985D01*
X70064275Y-186280623D01*
X70067548Y-186285286D01*
X70119368Y-186362839D01*
X70150208Y-186398006D01*
X70156808Y-186406210D01*
X70186431Y-186446414D01*
X70251182Y-186513366D01*
X70255254Y-186517787D01*
X70314573Y-186585427D01*
X70314576Y-186585430D01*
X70314579Y-186585433D01*
X70336339Y-186604515D01*
X70352244Y-186618463D01*
X70359613Y-186625482D01*
X70396641Y-186663769D01*
X70396648Y-186663775D01*
X70467113Y-186719421D01*
X70472023Y-186723508D01*
X70537158Y-186780630D01*
X70537160Y-186780631D01*
X70537162Y-186780633D01*
X70581594Y-186810321D01*
X70589541Y-186816101D01*
X70633944Y-186851166D01*
X70633943Y-186851166D01*
X70708352Y-186895238D01*
X70714051Y-186898826D01*
X70783327Y-186945115D01*
X70834236Y-186970220D01*
X70842556Y-186974726D01*
X70894114Y-187005265D01*
X70970667Y-187037725D01*
X70977095Y-187040671D01*
X71034421Y-187068941D01*
X71048855Y-187076059D01*
X71105754Y-187095373D01*
X71114278Y-187098623D01*
X71155021Y-187115899D01*
X71172498Y-187123310D01*
X71249532Y-187144411D01*
X71256578Y-187146571D01*
X71329203Y-187171224D01*
X71391391Y-187183593D01*
X71399924Y-187185608D01*
X71464132Y-187203197D01*
X71539980Y-187213397D01*
X71547627Y-187214671D01*
X71619574Y-187228983D01*
X71619581Y-187228983D01*
X71619586Y-187228984D01*
X71686147Y-187233347D01*
X71694562Y-187234186D01*
X71763811Y-187243500D01*
X71836997Y-187243500D01*
X71845106Y-187243765D01*
X71915000Y-187248346D01*
X71985343Y-187243735D01*
X71989291Y-187243541D01*
X71990491Y-187243500D01*
X71990511Y-187243500D01*
X72064003Y-187238579D01*
X72064179Y-187238618D01*
X72064176Y-187238568D01*
X72064177Y-187238568D01*
X72210426Y-187228983D01*
X72210431Y-187228981D01*
X72211209Y-187228931D01*
X72215890Y-187228467D01*
X72216698Y-187228358D01*
X72216702Y-187228358D01*
X72360246Y-187199181D01*
X72500797Y-187171224D01*
X72500821Y-187171215D01*
X72504723Y-187170171D01*
X72504773Y-187170358D01*
X72513008Y-187168132D01*
X72513017Y-187168130D01*
X72513018Y-187168129D01*
X72513021Y-187168129D01*
X72648223Y-187121180D01*
X72648817Y-187120976D01*
X72781145Y-187076059D01*
X72781259Y-187076002D01*
X72781306Y-187075980D01*
X72795495Y-187070043D01*
X72798668Y-187068942D01*
X72923411Y-187005905D01*
X72924240Y-187005491D01*
X73046673Y-186945115D01*
X73049604Y-186943155D01*
X73062573Y-186935583D01*
X73068545Y-186932566D01*
X73180948Y-186855404D01*
X73182125Y-186854607D01*
X73292838Y-186780633D01*
X73297994Y-186776109D01*
X73309574Y-186767108D01*
X73317838Y-186761437D01*
X73416514Y-186672188D01*
X73417806Y-186671037D01*
X73515427Y-186585427D01*
X73522149Y-186577761D01*
X73532189Y-186567566D01*
X73542097Y-186558606D01*
X73625848Y-186459542D01*
X73627223Y-186457946D01*
X73710633Y-186362838D01*
X73718149Y-186351589D01*
X73726548Y-186340434D01*
X73737320Y-186327695D01*
X73805284Y-186221229D01*
X73806645Y-186219143D01*
X73875115Y-186116673D01*
X73882567Y-186101560D01*
X73889260Y-186089685D01*
X73900020Y-186072829D01*
X73900021Y-186072828D01*
X73900021Y-186072826D01*
X73900024Y-186072823D01*
X73951826Y-185961191D01*
X73953027Y-185958681D01*
X74006059Y-185851145D01*
X74012546Y-185832031D01*
X74017476Y-185819719D01*
X74027306Y-185798539D01*
X74062778Y-185684185D01*
X74063787Y-185681082D01*
X74101224Y-185570797D01*
X74105805Y-185547761D01*
X74108991Y-185535208D01*
X74116893Y-185509738D01*
X74136254Y-185394954D01*
X74136905Y-185391415D01*
X74142160Y-185365000D01*
X74158983Y-185280426D01*
X74160738Y-185253645D01*
X74162197Y-185241149D01*
X74167187Y-185211572D01*
X74170965Y-185098551D01*
X74171161Y-185094609D01*
X74173388Y-185060645D01*
X74178346Y-184985000D01*
X74176372Y-184954901D01*
X74176176Y-184942682D01*
X74177291Y-184909363D01*
X74166310Y-184800215D01*
X74165954Y-184795919D01*
X74158984Y-184689590D01*
X74158983Y-184689574D01*
X74152449Y-184656725D01*
X74150691Y-184644957D01*
X74147024Y-184608507D01*
X74147023Y-184608499D01*
X74122356Y-184504991D01*
X74121361Y-184500437D01*
X74113371Y-184460268D01*
X74101224Y-184399203D01*
X74089386Y-184364332D01*
X74086196Y-184353261D01*
X74076927Y-184314364D01*
X74039879Y-184218174D01*
X74038178Y-184213477D01*
X74006059Y-184118855D01*
X73988303Y-184082849D01*
X73983814Y-184072602D01*
X73968250Y-184032191D01*
X73920303Y-183944700D01*
X73917851Y-183939987D01*
X73875115Y-183853327D01*
X73850977Y-183817202D01*
X73845339Y-183807906D01*
X73830333Y-183780525D01*
X73822933Y-183767021D01*
X73765707Y-183689354D01*
X73762450Y-183684711D01*
X73710634Y-183607163D01*
X73679791Y-183571993D01*
X73673191Y-183563789D01*
X73659855Y-183545689D01*
X73643569Y-183523586D01*
X73578828Y-183456644D01*
X73574734Y-183452199D01*
X73515434Y-183384581D01*
X73515432Y-183384578D01*
X73515429Y-183384575D01*
X73515427Y-183384573D01*
X73477756Y-183351536D01*
X73470387Y-183344517D01*
X73433359Y-183306231D01*
X73433353Y-183306226D01*
X73422634Y-183297761D01*
X73362870Y-183250566D01*
X73358004Y-183246516D01*
X73292838Y-183189367D01*
X73248413Y-183159683D01*
X73240458Y-183153898D01*
X73196053Y-183118832D01*
X73196051Y-183118830D01*
X73121645Y-183074759D01*
X73115948Y-183071173D01*
X73046667Y-183024881D01*
X72995776Y-182999785D01*
X72987428Y-182995263D01*
X72935894Y-182964739D01*
X72935888Y-182964736D01*
X72935886Y-182964735D01*
X72919039Y-182957591D01*
X72859324Y-182932269D01*
X72852892Y-182929322D01*
X72781145Y-182893941D01*
X72781142Y-182893940D01*
X72724255Y-182874629D01*
X72715708Y-182871371D01*
X72702308Y-182865689D01*
X72657502Y-182846690D01*
X72657501Y-182846689D01*
X72580507Y-182825598D01*
X72573413Y-182823424D01*
X72500804Y-182798778D01*
X72500800Y-182798777D01*
X72500797Y-182798776D01*
X72438619Y-182786407D01*
X72430055Y-182784385D01*
X72365877Y-182766805D01*
X72365870Y-182766803D01*
X72365868Y-182766803D01*
X72365864Y-182766802D01*
X72365852Y-182766800D01*
X72290048Y-182756605D01*
X72282389Y-182755330D01*
X72234925Y-182745890D01*
X72210426Y-182741017D01*
X72210423Y-182741016D01*
X72210419Y-182741016D01*
X72143859Y-182736653D01*
X72135445Y-182735813D01*
X72085502Y-182729097D01*
X72066189Y-182726500D01*
X72066188Y-182726500D01*
X71993003Y-182726500D01*
X71984894Y-182726235D01*
X71973670Y-182725499D01*
X71915000Y-182721654D01*
X71914999Y-182721654D01*
X71844669Y-182726263D01*
X71840710Y-182726459D01*
X71839478Y-182726500D01*
X71771960Y-182731020D01*
X71765822Y-182731431D01*
X71765789Y-182731433D01*
X71765650Y-182731442D01*
X71618894Y-182741061D01*
X71614035Y-182741543D01*
X71613287Y-182741643D01*
X71470063Y-182770754D01*
X71469557Y-182770856D01*
X71329203Y-182798775D01*
X71325291Y-182799824D01*
X71325243Y-182799645D01*
X71317049Y-182801856D01*
X71316984Y-182801869D01*
X71316970Y-182801872D01*
X71181882Y-182848780D01*
X71181067Y-182849060D01*
X71048856Y-182893940D01*
X71048854Y-182893940D01*
X71048662Y-182894036D01*
X71034526Y-182899948D01*
X71031336Y-182901055D01*
X71031323Y-182901061D01*
X70906750Y-182964011D01*
X70905670Y-182964551D01*
X70783327Y-183024885D01*
X70783319Y-183024890D01*
X70780374Y-183026857D01*
X70767447Y-183034404D01*
X70761465Y-183037427D01*
X70761453Y-183037434D01*
X70649105Y-183114556D01*
X70647821Y-183115426D01*
X70537158Y-183189369D01*
X70531999Y-183193894D01*
X70520427Y-183202889D01*
X70512163Y-183208562D01*
X70413538Y-183297761D01*
X70412122Y-183299022D01*
X70314574Y-183384571D01*
X70307845Y-183392243D01*
X70297816Y-183402426D01*
X70287911Y-183411386D01*
X70287904Y-183411393D01*
X70204201Y-183510396D01*
X70202737Y-183512096D01*
X70119368Y-183607160D01*
X70111847Y-183618414D01*
X70103451Y-183629563D01*
X70092683Y-183642301D01*
X70092680Y-183642305D01*
X70065609Y-183684711D01*
X70024728Y-183748748D01*
X70023313Y-183750913D01*
X69954888Y-183853321D01*
X69954884Y-183853327D01*
X69947429Y-183868444D01*
X69940743Y-183880309D01*
X69929975Y-183897178D01*
X69878204Y-184008737D01*
X69876939Y-184011380D01*
X69823939Y-184118856D01*
X69817456Y-184137956D01*
X69812521Y-184150281D01*
X69802697Y-184171454D01*
X69802690Y-184171472D01*
X69767236Y-184285762D01*
X69766224Y-184288880D01*
X69728776Y-184399203D01*
X69724420Y-184421104D01*
X69724192Y-184422248D01*
X69721008Y-184434789D01*
X69713108Y-184460256D01*
X69713105Y-184460268D01*
X69693749Y-184575009D01*
X69693095Y-184578571D01*
X69671016Y-184689580D01*
X69671015Y-184689582D01*
X69669261Y-184716346D01*
X69667800Y-184728855D01*
X69662813Y-184758420D01*
X69659035Y-184871395D01*
X69658839Y-184875358D01*
X69651654Y-184985000D01*
X64875500Y-184985000D01*
X64875500Y-169292927D01*
X67914000Y-169292927D01*
X67918036Y-169341631D01*
X67928987Y-169473799D01*
X67988425Y-169708512D01*
X68085684Y-169930241D01*
X68218111Y-170132937D01*
X68218114Y-170132940D01*
X68382100Y-170311076D01*
X68474785Y-170383216D01*
X68563997Y-170452653D01*
X68573170Y-170459792D01*
X68786112Y-170575030D01*
X68905026Y-170615853D01*
X69015113Y-170653647D01*
X69015115Y-170653647D01*
X69015117Y-170653648D01*
X69253938Y-170693500D01*
X69253939Y-170693500D01*
X69496061Y-170693500D01*
X69496062Y-170693500D01*
X69734883Y-170653648D01*
X69963888Y-170575030D01*
X70176830Y-170459792D01*
X70367900Y-170311076D01*
X70531886Y-170132940D01*
X70546266Y-170110928D01*
X70599410Y-170065571D01*
X70668641Y-170056146D01*
X70731978Y-170085645D01*
X70753883Y-170110923D01*
X70764848Y-170127706D01*
X70764851Y-170127710D01*
X70927873Y-170304797D01*
X70927883Y-170304806D01*
X71117831Y-170452649D01*
X71117840Y-170452655D01*
X71329531Y-170567215D01*
X71329545Y-170567221D01*
X71557207Y-170645379D01*
X71665000Y-170663366D01*
X71665000Y-169730881D01*
X71758369Y-169769556D01*
X71875677Y-169785000D01*
X71954323Y-169785000D01*
X72071631Y-169769556D01*
X72165000Y-169730881D01*
X72165000Y-170663365D01*
X72272792Y-170645379D01*
X72500454Y-170567221D01*
X72500468Y-170567215D01*
X72712159Y-170452655D01*
X72712162Y-170452653D01*
X72848129Y-170346825D01*
X72913123Y-170321182D01*
X72981663Y-170334748D01*
X73031988Y-170383216D01*
X73040473Y-170401343D01*
X73051611Y-170431204D01*
X73139239Y-170548261D01*
X73256296Y-170635889D01*
X73393299Y-170686989D01*
X73420550Y-170689918D01*
X73453845Y-170693499D01*
X73453862Y-170693500D01*
X75456138Y-170693500D01*
X75456154Y-170693499D01*
X75483192Y-170690591D01*
X75516701Y-170686989D01*
X75653704Y-170635889D01*
X75770761Y-170548261D01*
X75858389Y-170431204D01*
X75904055Y-170308768D01*
X75909488Y-170294204D01*
X75909488Y-170294203D01*
X75909489Y-170294201D01*
X75913091Y-170260692D01*
X75915999Y-170233654D01*
X75916000Y-170233637D01*
X75916000Y-168136362D01*
X75915999Y-168136345D01*
X75912657Y-168105270D01*
X75909489Y-168075799D01*
X75905536Y-168065202D01*
X75887022Y-168015564D01*
X75858389Y-167938796D01*
X75770761Y-167821739D01*
X75653704Y-167734111D01*
X75516703Y-167683011D01*
X75456154Y-167676500D01*
X75456138Y-167676500D01*
X73453862Y-167676500D01*
X73453845Y-167676500D01*
X73393297Y-167683011D01*
X73393295Y-167683011D01*
X73256295Y-167734111D01*
X73139239Y-167821739D01*
X73051611Y-167938795D01*
X73040473Y-167968657D01*
X72998600Y-168024590D01*
X72933135Y-168049005D01*
X72864862Y-168034152D01*
X72848129Y-168023174D01*
X72712162Y-167917346D01*
X72712159Y-167917344D01*
X72500468Y-167802784D01*
X72500454Y-167802778D01*
X72272791Y-167724619D01*
X72165000Y-167706633D01*
X72165000Y-168639118D01*
X72071631Y-168600444D01*
X71954323Y-168585000D01*
X71875677Y-168585000D01*
X71758369Y-168600444D01*
X71665000Y-168639118D01*
X71665000Y-167706633D01*
X71664999Y-167706633D01*
X71557208Y-167724619D01*
X71329545Y-167802778D01*
X71329531Y-167802784D01*
X71117840Y-167917344D01*
X71117831Y-167917350D01*
X70927883Y-168065193D01*
X70927873Y-168065202D01*
X70764851Y-168242289D01*
X70764843Y-168242300D01*
X70753881Y-168259078D01*
X70700732Y-168304432D01*
X70631501Y-168313852D01*
X70568166Y-168284347D01*
X70546266Y-168259071D01*
X70531887Y-168237062D01*
X70531886Y-168237060D01*
X70367900Y-168058924D01*
X70213559Y-167938795D01*
X70176832Y-167910209D01*
X70176827Y-167910206D01*
X69963894Y-167794973D01*
X69963891Y-167794972D01*
X69963888Y-167794970D01*
X69963882Y-167794968D01*
X69963880Y-167794967D01*
X69734886Y-167716352D01*
X69535080Y-167683011D01*
X69496062Y-167676500D01*
X69253938Y-167676500D01*
X69214920Y-167683011D01*
X69015113Y-167716352D01*
X68786119Y-167794967D01*
X68786105Y-167794973D01*
X68573172Y-167910206D01*
X68573167Y-167910209D01*
X68382102Y-168058922D01*
X68218111Y-168237062D01*
X68085684Y-168439758D01*
X67988425Y-168661487D01*
X67928987Y-168896200D01*
X67928987Y-168896203D01*
X67914000Y-169077073D01*
X67914000Y-169292927D01*
X64875500Y-169292927D01*
X64875500Y-155415000D01*
X67287449Y-155415000D01*
X67291415Y-155444278D01*
X67360945Y-155658268D01*
X67467565Y-155856401D01*
X67467567Y-155856404D01*
X67607854Y-156032320D01*
X67777292Y-156180352D01*
X67777300Y-156180359D01*
X67970446Y-156295759D01*
X67970451Y-156295761D01*
X68181110Y-156374824D01*
X68402494Y-156415000D01*
X68665000Y-156415000D01*
X68665000Y-155615000D01*
X69165000Y-155615000D01*
X69165000Y-156415000D01*
X69371126Y-156415000D01*
X69371129Y-156414999D01*
X69539096Y-156399883D01*
X69539102Y-156399882D01*
X69755984Y-156340026D01*
X69755997Y-156340021D01*
X69958708Y-156242401D01*
X69958716Y-156242397D01*
X70140741Y-156110148D01*
X70140749Y-156110142D01*
X70296237Y-155947513D01*
X70420191Y-155759733D01*
X70508624Y-155552830D01*
X70508627Y-155552821D01*
X70540084Y-155415000D01*
X72747449Y-155415000D01*
X72751415Y-155444278D01*
X72820945Y-155658268D01*
X72927565Y-155856401D01*
X72927567Y-155856404D01*
X73067854Y-156032320D01*
X73237292Y-156180352D01*
X73237300Y-156180359D01*
X73430446Y-156295759D01*
X73430451Y-156295761D01*
X73641110Y-156374824D01*
X73862494Y-156415000D01*
X74625000Y-156415000D01*
X74625000Y-155615000D01*
X75125000Y-155615000D01*
X75125000Y-156415000D01*
X75831126Y-156415000D01*
X75831129Y-156414999D01*
X75999096Y-156399883D01*
X75999102Y-156399882D01*
X76215984Y-156340026D01*
X76215997Y-156340021D01*
X76418708Y-156242401D01*
X76418716Y-156242397D01*
X76600741Y-156110148D01*
X76600749Y-156110142D01*
X76756237Y-155947513D01*
X76880191Y-155759733D01*
X76968624Y-155552830D01*
X76968627Y-155552821D01*
X77000084Y-155415000D01*
X76150278Y-155415000D01*
X76198625Y-155331260D01*
X76228810Y-155199008D01*
X76218673Y-155063735D01*
X76169113Y-154937459D01*
X76151203Y-154915000D01*
X77002550Y-154915000D01*
X77002550Y-154914999D01*
X76998584Y-154885721D01*
X76929054Y-154671731D01*
X76822434Y-154473598D01*
X76822432Y-154473595D01*
X76682145Y-154297679D01*
X76512707Y-154149647D01*
X76512699Y-154149640D01*
X76319553Y-154034240D01*
X76319548Y-154034238D01*
X76108889Y-153955175D01*
X75887506Y-153915000D01*
X75125000Y-153915000D01*
X75125000Y-154715000D01*
X74625000Y-154715000D01*
X74625000Y-153915000D01*
X73918870Y-153915000D01*
X73750903Y-153930116D01*
X73750897Y-153930117D01*
X73534015Y-153989973D01*
X73534002Y-153989978D01*
X73331291Y-154087598D01*
X73331283Y-154087602D01*
X73149258Y-154219851D01*
X73149250Y-154219857D01*
X72993762Y-154382486D01*
X72869808Y-154570266D01*
X72781375Y-154777169D01*
X72781372Y-154777178D01*
X72749915Y-154914999D01*
X72749916Y-154915000D01*
X73599722Y-154915000D01*
X73551375Y-154998740D01*
X73521190Y-155130992D01*
X73531327Y-155266265D01*
X73580887Y-155392541D01*
X73598797Y-155415000D01*
X72747449Y-155415000D01*
X70540084Y-155415000D01*
X69690278Y-155415000D01*
X69738625Y-155331260D01*
X69768810Y-155199008D01*
X69758673Y-155063735D01*
X69709113Y-154937459D01*
X69691203Y-154915000D01*
X70542550Y-154915000D01*
X70542550Y-154914999D01*
X70538584Y-154885721D01*
X70469054Y-154671731D01*
X70362434Y-154473598D01*
X70362432Y-154473595D01*
X70222145Y-154297679D01*
X70052707Y-154149647D01*
X70052699Y-154149640D01*
X69859553Y-154034240D01*
X69859548Y-154034238D01*
X69648889Y-153955175D01*
X69427506Y-153915000D01*
X69165000Y-153915000D01*
X69165000Y-154715000D01*
X68665000Y-154715000D01*
X68665000Y-153915000D01*
X68458870Y-153915000D01*
X68290903Y-153930116D01*
X68290897Y-153930117D01*
X68074015Y-153989973D01*
X68074002Y-153989978D01*
X67871291Y-154087598D01*
X67871283Y-154087602D01*
X67689258Y-154219851D01*
X67689250Y-154219857D01*
X67533762Y-154382486D01*
X67409808Y-154570266D01*
X67321375Y-154777169D01*
X67321372Y-154777178D01*
X67289915Y-154914999D01*
X67289916Y-154915000D01*
X68139722Y-154915000D01*
X68091375Y-154998740D01*
X68061190Y-155130992D01*
X68071327Y-155266265D01*
X68120887Y-155392541D01*
X68138797Y-155415000D01*
X67287449Y-155415000D01*
X64875500Y-155415000D01*
X64875500Y-140915000D01*
X67287449Y-140915000D01*
X67291415Y-140944278D01*
X67360945Y-141158268D01*
X67467565Y-141356401D01*
X67467567Y-141356404D01*
X67607854Y-141532320D01*
X67777292Y-141680352D01*
X67777300Y-141680359D01*
X67970446Y-141795759D01*
X67970451Y-141795761D01*
X68181110Y-141874824D01*
X68402494Y-141915000D01*
X68665000Y-141915000D01*
X68665000Y-141115000D01*
X69165000Y-141115000D01*
X69165000Y-141915000D01*
X69371126Y-141915000D01*
X69371129Y-141914999D01*
X69539096Y-141899883D01*
X69539102Y-141899882D01*
X69755984Y-141840026D01*
X69755997Y-141840021D01*
X69958708Y-141742401D01*
X69958716Y-141742397D01*
X70140741Y-141610148D01*
X70140749Y-141610142D01*
X70296237Y-141447513D01*
X70420191Y-141259733D01*
X70508624Y-141052830D01*
X70508627Y-141052821D01*
X70540084Y-140915000D01*
X72747449Y-140915000D01*
X72751415Y-140944278D01*
X72820945Y-141158268D01*
X72927565Y-141356401D01*
X72927567Y-141356404D01*
X73067854Y-141532320D01*
X73237292Y-141680352D01*
X73237300Y-141680359D01*
X73430446Y-141795759D01*
X73430451Y-141795761D01*
X73641110Y-141874824D01*
X73862494Y-141915000D01*
X74625000Y-141915000D01*
X74625000Y-141115000D01*
X75125000Y-141115000D01*
X75125000Y-141915000D01*
X75831126Y-141915000D01*
X75831129Y-141914999D01*
X75999096Y-141899883D01*
X75999102Y-141899882D01*
X76215984Y-141840026D01*
X76215997Y-141840021D01*
X76418708Y-141742401D01*
X76418716Y-141742397D01*
X76600741Y-141610148D01*
X76600749Y-141610142D01*
X76756237Y-141447513D01*
X76880191Y-141259733D01*
X76968624Y-141052830D01*
X76968627Y-141052821D01*
X77000084Y-140915000D01*
X76150278Y-140915000D01*
X76198625Y-140831260D01*
X76228810Y-140699008D01*
X76218673Y-140563735D01*
X76169113Y-140437459D01*
X76151203Y-140415000D01*
X77002550Y-140415000D01*
X77002550Y-140414999D01*
X76998584Y-140385721D01*
X76929054Y-140171731D01*
X76822434Y-139973598D01*
X76822432Y-139973595D01*
X76682145Y-139797679D01*
X76649322Y-139769003D01*
X90090859Y-139769003D01*
X90109364Y-139933246D01*
X90163958Y-140089268D01*
X90251898Y-140229223D01*
X90328281Y-140305606D01*
X90361766Y-140366929D01*
X90364600Y-140393287D01*
X90364600Y-158142466D01*
X90362861Y-158158213D01*
X90363132Y-158158239D01*
X90362398Y-158166005D01*
X90364539Y-158234116D01*
X90364600Y-158238012D01*
X90364600Y-158265959D01*
X90365118Y-158270058D01*
X90366034Y-158281698D01*
X90367426Y-158325989D01*
X90367427Y-158325991D01*
X90373122Y-158345595D01*
X90377067Y-158364642D01*
X90379626Y-158384897D01*
X90379627Y-158384900D01*
X90379628Y-158384904D01*
X90395938Y-158426100D01*
X90399721Y-158437149D01*
X90412081Y-158479692D01*
X90422472Y-158497262D01*
X90431032Y-158514735D01*
X90438547Y-158533717D01*
X90464591Y-158569563D01*
X90471005Y-158579327D01*
X90493558Y-158617462D01*
X90493562Y-158617466D01*
X90507989Y-158631893D01*
X90520626Y-158646688D01*
X90532628Y-158663207D01*
X90565307Y-158690242D01*
X90566768Y-158691450D01*
X90575409Y-158699313D01*
X113455181Y-181579085D01*
X113488666Y-181640408D01*
X113491500Y-181666766D01*
X113491500Y-185082809D01*
X113472494Y-185148780D01*
X113459960Y-185168727D01*
X113459958Y-185168731D01*
X113405364Y-185324753D01*
X113386859Y-185488996D01*
X113386859Y-185489000D01*
X113405364Y-185653246D01*
X113459958Y-185809268D01*
X113538220Y-185933820D01*
X113547898Y-185949223D01*
X113664777Y-186066102D01*
X113804733Y-186154042D01*
X113960748Y-186208634D01*
X113960751Y-186208634D01*
X113960753Y-186208635D01*
X114124996Y-186227141D01*
X114125000Y-186227141D01*
X114125004Y-186227141D01*
X114289246Y-186208635D01*
X114289247Y-186208634D01*
X114289252Y-186208634D01*
X114445267Y-186154042D01*
X114585223Y-186066102D01*
X114702102Y-185949223D01*
X114790042Y-185809267D01*
X114844634Y-185653252D01*
X114850002Y-185605615D01*
X114863141Y-185489000D01*
X114863141Y-185488996D01*
X114844635Y-185324753D01*
X114844634Y-185324751D01*
X114844634Y-185324748D01*
X114790042Y-185168733D01*
X114790041Y-185168731D01*
X114790039Y-185168727D01*
X114777506Y-185148780D01*
X114758500Y-185082809D01*
X114758500Y-182521066D01*
X114778185Y-182454027D01*
X114830989Y-182408272D01*
X114896383Y-182397846D01*
X114955813Y-182404542D01*
X114969999Y-182406141D01*
X114970000Y-182406141D01*
X114970004Y-182406141D01*
X115134246Y-182387635D01*
X115134247Y-182387634D01*
X115134252Y-182387634D01*
X115290267Y-182333042D01*
X115430223Y-182245102D01*
X115547102Y-182128223D01*
X115635042Y-181988267D01*
X115689634Y-181832252D01*
X115692219Y-181809310D01*
X115708141Y-181668003D01*
X115708141Y-181667996D01*
X115689635Y-181503753D01*
X115689634Y-181503751D01*
X115689634Y-181503748D01*
X115635042Y-181347733D01*
X115632370Y-181343481D01*
X115573443Y-181249699D01*
X115547102Y-181207777D01*
X115430223Y-181090898D01*
X115425745Y-181088084D01*
X115290269Y-181002959D01*
X115290265Y-181002957D01*
X115179451Y-180964181D01*
X115132725Y-180934821D01*
X92006819Y-157808914D01*
X91973334Y-157747591D01*
X91970500Y-157721233D01*
X91970500Y-155710005D01*
X99021844Y-155710005D01*
X99040434Y-155934359D01*
X99040436Y-155934371D01*
X99095703Y-156152614D01*
X99186140Y-156358792D01*
X99309276Y-156547265D01*
X99309284Y-156547276D01*
X99397277Y-156642860D01*
X99461760Y-156712906D01*
X99639424Y-156851189D01*
X99639425Y-156851189D01*
X99639427Y-156851191D01*
X99761378Y-156917187D01*
X99837426Y-156958342D01*
X100050365Y-157031444D01*
X100272431Y-157068500D01*
X100497569Y-157068500D01*
X100719635Y-157031444D01*
X100932574Y-156958342D01*
X101130576Y-156851189D01*
X101308240Y-156712906D01*
X101460722Y-156547268D01*
X101551193Y-156408790D01*
X101604338Y-156363437D01*
X101673569Y-156354013D01*
X101736905Y-156383515D01*
X101758804Y-156408787D01*
X101849278Y-156547268D01*
X101849283Y-156547273D01*
X101849284Y-156547276D01*
X101937277Y-156642860D01*
X102001760Y-156712906D01*
X102179424Y-156851189D01*
X102179425Y-156851189D01*
X102179427Y-156851191D01*
X102301378Y-156917187D01*
X102377426Y-156958342D01*
X102590365Y-157031444D01*
X102812431Y-157068500D01*
X103037569Y-157068500D01*
X103259635Y-157031444D01*
X103472574Y-156958342D01*
X103670576Y-156851189D01*
X103848240Y-156712906D01*
X103917908Y-156637226D01*
X103977793Y-156601237D01*
X104047631Y-156603337D01*
X104105247Y-156642860D01*
X104125318Y-156677877D01*
X104171645Y-156802086D01*
X104171649Y-156802093D01*
X104257809Y-156917187D01*
X104257812Y-156917190D01*
X104372906Y-157003350D01*
X104372913Y-157003354D01*
X104507620Y-157053596D01*
X104507627Y-157053598D01*
X104567155Y-157059999D01*
X104567172Y-157060000D01*
X105215000Y-157060000D01*
X105215000Y-156156494D01*
X105319839Y-156204373D01*
X105428527Y-156220000D01*
X105501473Y-156220000D01*
X105610161Y-156204373D01*
X105715000Y-156156494D01*
X105715000Y-157060000D01*
X106362828Y-157060000D01*
X106362844Y-157059999D01*
X106422372Y-157053598D01*
X106422379Y-157053596D01*
X106557086Y-157003354D01*
X106557093Y-157003350D01*
X106672187Y-156917190D01*
X106672190Y-156917187D01*
X106758350Y-156802093D01*
X106758354Y-156802086D01*
X106804681Y-156677877D01*
X106846552Y-156621943D01*
X106912016Y-156597526D01*
X106980289Y-156612377D01*
X107012089Y-156637223D01*
X107081760Y-156712906D01*
X107259424Y-156851189D01*
X107259425Y-156851189D01*
X107259427Y-156851191D01*
X107381378Y-156917187D01*
X107457426Y-156958342D01*
X107670365Y-157031444D01*
X107892431Y-157068500D01*
X108117569Y-157068500D01*
X108339635Y-157031444D01*
X108552574Y-156958342D01*
X108750576Y-156851189D01*
X108928240Y-156712906D01*
X109080722Y-156547268D01*
X109171193Y-156408790D01*
X109224338Y-156363437D01*
X109293569Y-156354013D01*
X109356905Y-156383515D01*
X109378804Y-156408787D01*
X109469278Y-156547268D01*
X109469283Y-156547273D01*
X109469284Y-156547276D01*
X109557277Y-156642860D01*
X109621760Y-156712906D01*
X109799424Y-156851189D01*
X109799425Y-156851189D01*
X109799427Y-156851191D01*
X109921378Y-156917187D01*
X109997426Y-156958342D01*
X110210365Y-157031444D01*
X110432431Y-157068500D01*
X110657569Y-157068500D01*
X110879635Y-157031444D01*
X111092574Y-156958342D01*
X111290576Y-156851189D01*
X111468240Y-156712906D01*
X111620722Y-156547268D01*
X111711193Y-156408790D01*
X111764338Y-156363437D01*
X111833569Y-156354013D01*
X111896905Y-156383515D01*
X111918804Y-156408787D01*
X112009278Y-156547268D01*
X112009283Y-156547273D01*
X112009284Y-156547276D01*
X112097277Y-156642860D01*
X112161760Y-156712906D01*
X112339424Y-156851189D01*
X112339425Y-156851189D01*
X112339427Y-156851191D01*
X112461378Y-156917187D01*
X112537426Y-156958342D01*
X112750365Y-157031444D01*
X112972431Y-157068500D01*
X113197569Y-157068500D01*
X113419635Y-157031444D01*
X113632574Y-156958342D01*
X113830576Y-156851189D01*
X114008240Y-156712906D01*
X114160722Y-156547268D01*
X114251193Y-156408790D01*
X114304338Y-156363437D01*
X114373569Y-156354013D01*
X114436905Y-156383515D01*
X114458804Y-156408787D01*
X114549278Y-156547268D01*
X114549283Y-156547273D01*
X114549284Y-156547276D01*
X114637277Y-156642860D01*
X114701760Y-156712906D01*
X114879424Y-156851189D01*
X114879425Y-156851189D01*
X114879427Y-156851191D01*
X115001378Y-156917187D01*
X115077426Y-156958342D01*
X115290365Y-157031444D01*
X115512431Y-157068500D01*
X115737569Y-157068500D01*
X115959635Y-157031444D01*
X116172574Y-156958342D01*
X116370576Y-156851189D01*
X116548240Y-156712906D01*
X116617908Y-156637226D01*
X116677793Y-156601237D01*
X116747631Y-156603337D01*
X116805247Y-156642860D01*
X116825318Y-156677877D01*
X116871645Y-156802086D01*
X116871649Y-156802093D01*
X116957809Y-156917187D01*
X116957812Y-156917190D01*
X117072906Y-157003350D01*
X117072913Y-157003354D01*
X117207620Y-157053596D01*
X117207627Y-157053598D01*
X117267155Y-157059999D01*
X117267172Y-157060000D01*
X117915000Y-157060000D01*
X117915000Y-156156494D01*
X118019839Y-156204373D01*
X118128527Y-156220000D01*
X118201473Y-156220000D01*
X118310161Y-156204373D01*
X118415000Y-156156494D01*
X118415000Y-157060000D01*
X119062828Y-157060000D01*
X119062844Y-157059999D01*
X119122372Y-157053598D01*
X119122379Y-157053596D01*
X119257086Y-157003354D01*
X119257093Y-157003350D01*
X119372187Y-156917190D01*
X119372190Y-156917187D01*
X119458350Y-156802093D01*
X119458354Y-156802086D01*
X119504681Y-156677877D01*
X119546552Y-156621943D01*
X119612016Y-156597526D01*
X119680289Y-156612377D01*
X119712089Y-156637223D01*
X119781760Y-156712906D01*
X119959424Y-156851189D01*
X119959425Y-156851189D01*
X119959427Y-156851191D01*
X120081378Y-156917187D01*
X120157426Y-156958342D01*
X120370365Y-157031444D01*
X120592431Y-157068500D01*
X120817569Y-157068500D01*
X121039635Y-157031444D01*
X121133337Y-156999275D01*
X121203135Y-156996126D01*
X121263557Y-157031212D01*
X121295417Y-157093394D01*
X121297600Y-157116557D01*
X121297600Y-173200357D01*
X121277915Y-173267396D01*
X121261281Y-173288038D01*
X115153417Y-179395901D01*
X115071034Y-179500092D01*
X115071031Y-179500097D01*
X114996095Y-179660797D01*
X114960241Y-179834439D01*
X114960241Y-179834441D01*
X114960241Y-179834442D01*
X114965398Y-180011679D01*
X115011290Y-180182950D01*
X115095443Y-180339019D01*
X115213319Y-180471476D01*
X115358565Y-180573178D01*
X115358573Y-180573181D01*
X115523346Y-180638641D01*
X115523348Y-180638641D01*
X115523350Y-180638642D01*
X115698789Y-180664341D01*
X115875426Y-180648887D01*
X116043738Y-180593114D01*
X116165350Y-180518102D01*
X116232742Y-180499662D01*
X116299406Y-180520584D01*
X116301535Y-180522042D01*
X116374565Y-180573178D01*
X116374573Y-180573181D01*
X116539346Y-180638641D01*
X116539348Y-180638641D01*
X116539350Y-180638642D01*
X116714789Y-180664341D01*
X116891426Y-180648887D01*
X117059738Y-180593114D01*
X117210651Y-180500030D01*
X123323880Y-174386799D01*
X123337506Y-174375023D01*
X123357058Y-174360469D01*
X123357060Y-174360467D01*
X123389274Y-174322075D01*
X123396590Y-174314090D01*
X123400581Y-174310100D01*
X123420047Y-174285479D01*
X123422295Y-174282721D01*
X123471031Y-174224641D01*
X123475004Y-174218601D01*
X123475045Y-174218628D01*
X123479219Y-174212076D01*
X123479176Y-174212050D01*
X123482961Y-174205912D01*
X123482967Y-174205905D01*
X123515021Y-174137163D01*
X123516579Y-174133946D01*
X123550605Y-174066196D01*
X123550605Y-174066195D01*
X123550609Y-174066188D01*
X123550611Y-174066179D01*
X123553077Y-174059405D01*
X123553124Y-174059422D01*
X123555675Y-174052083D01*
X123555629Y-174052068D01*
X123557900Y-174045210D01*
X123557903Y-174045206D01*
X123573244Y-173970905D01*
X123574021Y-173967401D01*
X123591500Y-173893656D01*
X123591500Y-173893653D01*
X123592339Y-173886483D01*
X123592386Y-173886488D01*
X123593177Y-173878757D01*
X123593130Y-173878753D01*
X123593759Y-173871562D01*
X123591552Y-173795707D01*
X123591500Y-173792101D01*
X123591500Y-158930542D01*
X123611185Y-158863503D01*
X123627814Y-158842866D01*
X125086980Y-157383699D01*
X125100606Y-157371923D01*
X125120158Y-157357369D01*
X125120160Y-157357367D01*
X125152374Y-157318975D01*
X125159690Y-157310990D01*
X125163681Y-157307000D01*
X125183147Y-157282379D01*
X125185395Y-157279621D01*
X125234131Y-157221541D01*
X125238104Y-157215501D01*
X125238145Y-157215528D01*
X125242319Y-157208976D01*
X125242276Y-157208950D01*
X125246061Y-157202812D01*
X125246067Y-157202805D01*
X125278121Y-157134062D01*
X125279649Y-157130904D01*
X125298745Y-157092882D01*
X125346423Y-157041811D01*
X125414146Y-157024622D01*
X125445330Y-157030422D01*
X125445391Y-157030185D01*
X125449093Y-157031122D01*
X125449825Y-157031258D01*
X125450365Y-157031444D01*
X125672431Y-157068500D01*
X125897569Y-157068500D01*
X126119635Y-157031444D01*
X126332574Y-156958342D01*
X126530576Y-156851189D01*
X126708240Y-156712906D01*
X126860722Y-156547268D01*
X126951193Y-156408790D01*
X127004338Y-156363437D01*
X127073569Y-156354013D01*
X127136905Y-156383515D01*
X127158804Y-156408787D01*
X127249278Y-156547268D01*
X127249283Y-156547273D01*
X127249284Y-156547276D01*
X127337277Y-156642860D01*
X127401760Y-156712906D01*
X127579424Y-156851189D01*
X127579425Y-156851189D01*
X127579427Y-156851191D01*
X127701378Y-156917187D01*
X127777426Y-156958342D01*
X127990365Y-157031444D01*
X128212431Y-157068500D01*
X128437569Y-157068500D01*
X128659635Y-157031444D01*
X128872574Y-156958342D01*
X129070576Y-156851189D01*
X129248240Y-156712906D01*
X129317908Y-156637226D01*
X129377793Y-156601237D01*
X129447631Y-156603337D01*
X129505247Y-156642860D01*
X129525318Y-156677877D01*
X129571645Y-156802086D01*
X129571649Y-156802093D01*
X129657809Y-156917187D01*
X129657812Y-156917190D01*
X129772906Y-157003350D01*
X129772913Y-157003354D01*
X129907620Y-157053596D01*
X129907627Y-157053598D01*
X129967155Y-157059999D01*
X129967172Y-157060000D01*
X130615000Y-157060000D01*
X130615000Y-156156494D01*
X130719839Y-156204373D01*
X130828527Y-156220000D01*
X130901473Y-156220000D01*
X131010161Y-156204373D01*
X131115000Y-156156494D01*
X131115000Y-157060000D01*
X131762828Y-157060000D01*
X131762844Y-157059999D01*
X131822372Y-157053598D01*
X131822379Y-157053596D01*
X131957086Y-157003354D01*
X131957093Y-157003350D01*
X132072187Y-156917190D01*
X132072190Y-156917187D01*
X132158350Y-156802093D01*
X132158354Y-156802086D01*
X132204681Y-156677877D01*
X132246552Y-156621943D01*
X132312016Y-156597526D01*
X132380289Y-156612377D01*
X132412089Y-156637223D01*
X132481760Y-156712906D01*
X132659424Y-156851189D01*
X132659425Y-156851189D01*
X132659427Y-156851191D01*
X132781378Y-156917187D01*
X132857426Y-156958342D01*
X133070365Y-157031444D01*
X133292431Y-157068500D01*
X133517569Y-157068500D01*
X133739635Y-157031444D01*
X133952574Y-156958342D01*
X134150576Y-156851189D01*
X134328240Y-156712906D01*
X134480722Y-156547268D01*
X134571193Y-156408790D01*
X134624338Y-156363437D01*
X134693569Y-156354013D01*
X134756905Y-156383515D01*
X134778804Y-156408787D01*
X134869278Y-156547268D01*
X134869283Y-156547273D01*
X134869284Y-156547276D01*
X134957277Y-156642860D01*
X135021760Y-156712906D01*
X135199424Y-156851189D01*
X135199425Y-156851189D01*
X135199427Y-156851191D01*
X135321378Y-156917187D01*
X135397426Y-156958342D01*
X135610365Y-157031444D01*
X135832431Y-157068500D01*
X136057569Y-157068500D01*
X136279635Y-157031444D01*
X136492574Y-156958342D01*
X136690576Y-156851189D01*
X136868240Y-156712906D01*
X137020722Y-156547268D01*
X137111193Y-156408790D01*
X137164338Y-156363437D01*
X137233569Y-156354013D01*
X137296905Y-156383515D01*
X137318804Y-156408787D01*
X137409278Y-156547268D01*
X137409283Y-156547273D01*
X137409284Y-156547276D01*
X137497277Y-156642860D01*
X137561760Y-156712906D01*
X137739424Y-156851189D01*
X137739425Y-156851189D01*
X137739427Y-156851191D01*
X137861378Y-156917187D01*
X137937426Y-156958342D01*
X138150365Y-157031444D01*
X138372431Y-157068500D01*
X138597569Y-157068500D01*
X138819635Y-157031444D01*
X139032574Y-156958342D01*
X139230576Y-156851189D01*
X139408240Y-156712906D01*
X139560722Y-156547268D01*
X139651193Y-156408790D01*
X139704338Y-156363437D01*
X139773569Y-156354013D01*
X139836905Y-156383515D01*
X139858804Y-156408787D01*
X139949278Y-156547268D01*
X139949283Y-156547273D01*
X139949284Y-156547276D01*
X140037277Y-156642860D01*
X140101760Y-156712906D01*
X140279424Y-156851189D01*
X140279425Y-156851189D01*
X140279427Y-156851191D01*
X140401378Y-156917187D01*
X140477426Y-156958342D01*
X140690365Y-157031444D01*
X140912431Y-157068500D01*
X141137569Y-157068500D01*
X141359635Y-157031444D01*
X141572574Y-156958342D01*
X141770576Y-156851189D01*
X141948240Y-156712906D01*
X142017908Y-156637226D01*
X142077793Y-156601237D01*
X142147631Y-156603337D01*
X142205247Y-156642860D01*
X142225318Y-156677877D01*
X142271645Y-156802086D01*
X142271649Y-156802093D01*
X142357809Y-156917187D01*
X142357812Y-156917190D01*
X142472906Y-157003350D01*
X142472913Y-157003354D01*
X142607620Y-157053596D01*
X142607627Y-157053598D01*
X142667155Y-157059999D01*
X142667172Y-157060000D01*
X143315000Y-157060000D01*
X143315000Y-156156494D01*
X143419839Y-156204373D01*
X143528527Y-156220000D01*
X143601473Y-156220000D01*
X143710161Y-156204373D01*
X143815000Y-156156494D01*
X143815000Y-157060000D01*
X144462828Y-157060000D01*
X144462844Y-157059999D01*
X144522372Y-157053598D01*
X144522379Y-157053596D01*
X144657086Y-157003354D01*
X144657093Y-157003350D01*
X144772187Y-156917190D01*
X144772190Y-156917187D01*
X144858350Y-156802093D01*
X144858354Y-156802086D01*
X144904681Y-156677877D01*
X144946552Y-156621943D01*
X145012016Y-156597526D01*
X145080289Y-156612377D01*
X145112089Y-156637223D01*
X145181760Y-156712906D01*
X145359424Y-156851189D01*
X145359425Y-156851189D01*
X145359427Y-156851191D01*
X145481378Y-156917187D01*
X145557426Y-156958342D01*
X145770365Y-157031444D01*
X145992431Y-157068500D01*
X146217569Y-157068500D01*
X146439635Y-157031444D01*
X146652574Y-156958342D01*
X146850576Y-156851189D01*
X147028240Y-156712906D01*
X147180722Y-156547268D01*
X147271193Y-156408790D01*
X147324338Y-156363437D01*
X147393569Y-156354013D01*
X147456905Y-156383515D01*
X147478804Y-156408787D01*
X147569278Y-156547268D01*
X147569283Y-156547273D01*
X147569284Y-156547276D01*
X147657277Y-156642860D01*
X147721760Y-156712906D01*
X147899424Y-156851189D01*
X147899425Y-156851189D01*
X147899427Y-156851191D01*
X148021378Y-156917187D01*
X148097426Y-156958342D01*
X148310365Y-157031444D01*
X148532431Y-157068500D01*
X148757569Y-157068500D01*
X148979635Y-157031444D01*
X149192574Y-156958342D01*
X149390576Y-156851189D01*
X149568240Y-156712906D01*
X149720722Y-156547268D01*
X149843860Y-156358791D01*
X149934296Y-156152616D01*
X149989564Y-155934368D01*
X149990420Y-155924040D01*
X150008156Y-155710005D01*
X150008156Y-155709994D01*
X149989565Y-155485640D01*
X149989563Y-155485628D01*
X149979092Y-155444278D01*
X149934296Y-155267384D01*
X149843860Y-155061209D01*
X149827706Y-155036484D01*
X149729208Y-154885721D01*
X149720722Y-154872732D01*
X149720719Y-154872729D01*
X149720715Y-154872723D01*
X149568243Y-154707097D01*
X149568238Y-154707092D01*
X149390577Y-154568812D01*
X149390572Y-154568808D01*
X149192580Y-154461661D01*
X149192577Y-154461659D01*
X149192574Y-154461658D01*
X149192571Y-154461657D01*
X149192569Y-154461656D01*
X148979637Y-154388556D01*
X148757569Y-154351500D01*
X148532431Y-154351500D01*
X148310362Y-154388556D01*
X148097430Y-154461656D01*
X148097419Y-154461661D01*
X147899427Y-154568808D01*
X147899422Y-154568812D01*
X147721761Y-154707092D01*
X147721756Y-154707097D01*
X147569284Y-154872723D01*
X147569276Y-154872734D01*
X147478808Y-155011206D01*
X147425662Y-155056562D01*
X147356431Y-155065986D01*
X147293095Y-155036484D01*
X147271192Y-155011206D01*
X147189208Y-154885721D01*
X147180722Y-154872732D01*
X147180719Y-154872729D01*
X147180715Y-154872723D01*
X147028243Y-154707097D01*
X147028238Y-154707092D01*
X146850577Y-154568812D01*
X146850572Y-154568808D01*
X146652580Y-154461661D01*
X146652577Y-154461659D01*
X146652574Y-154461658D01*
X146652571Y-154461657D01*
X146652569Y-154461656D01*
X146439637Y-154388556D01*
X146217569Y-154351500D01*
X145992431Y-154351500D01*
X145770362Y-154388556D01*
X145557430Y-154461656D01*
X145557419Y-154461661D01*
X145359427Y-154568808D01*
X145359422Y-154568812D01*
X145181761Y-154707092D01*
X145112092Y-154782773D01*
X145052205Y-154818763D01*
X144982367Y-154816662D01*
X144924751Y-154777137D01*
X144904681Y-154742122D01*
X144858354Y-154617913D01*
X144858350Y-154617906D01*
X144772190Y-154502812D01*
X144772187Y-154502809D01*
X144657093Y-154416649D01*
X144657086Y-154416645D01*
X144522379Y-154366403D01*
X144522372Y-154366401D01*
X144462844Y-154360000D01*
X143815000Y-154360000D01*
X143815000Y-155263505D01*
X143710161Y-155215627D01*
X143601473Y-155200000D01*
X143528527Y-155200000D01*
X143419839Y-155215627D01*
X143315000Y-155263505D01*
X143315000Y-154360000D01*
X142667155Y-154360000D01*
X142607627Y-154366401D01*
X142607620Y-154366403D01*
X142472913Y-154416645D01*
X142472906Y-154416649D01*
X142357812Y-154502809D01*
X142357809Y-154502812D01*
X142271649Y-154617906D01*
X142271646Y-154617911D01*
X142225318Y-154742123D01*
X142183446Y-154798056D01*
X142117982Y-154822473D01*
X142049709Y-154807621D01*
X142017910Y-154782775D01*
X141948240Y-154707094D01*
X141770576Y-154568811D01*
X141770575Y-154568810D01*
X141770572Y-154568808D01*
X141572580Y-154461661D01*
X141572577Y-154461659D01*
X141572574Y-154461658D01*
X141572571Y-154461657D01*
X141572569Y-154461656D01*
X141359637Y-154388556D01*
X141137569Y-154351500D01*
X140912431Y-154351500D01*
X140690362Y-154388556D01*
X140477430Y-154461656D01*
X140477419Y-154461661D01*
X140279427Y-154568808D01*
X140279422Y-154568812D01*
X140101761Y-154707092D01*
X140101756Y-154707097D01*
X139949284Y-154872723D01*
X139949276Y-154872734D01*
X139858808Y-155011206D01*
X139805662Y-155056562D01*
X139736431Y-155065986D01*
X139673095Y-155036484D01*
X139651192Y-155011206D01*
X139569208Y-154885721D01*
X139560722Y-154872732D01*
X139560719Y-154872729D01*
X139560715Y-154872723D01*
X139408243Y-154707097D01*
X139408238Y-154707092D01*
X139230577Y-154568812D01*
X139230572Y-154568808D01*
X139032580Y-154461661D01*
X139032577Y-154461659D01*
X139032574Y-154461658D01*
X139032571Y-154461657D01*
X139032569Y-154461656D01*
X138819637Y-154388556D01*
X138597569Y-154351500D01*
X138372431Y-154351500D01*
X138150362Y-154388556D01*
X137937430Y-154461656D01*
X137937419Y-154461661D01*
X137739427Y-154568808D01*
X137739422Y-154568812D01*
X137561761Y-154707092D01*
X137561756Y-154707097D01*
X137409284Y-154872723D01*
X137409276Y-154872734D01*
X137318808Y-155011206D01*
X137265662Y-155056562D01*
X137196431Y-155065986D01*
X137133095Y-155036484D01*
X137111192Y-155011206D01*
X137029208Y-154885721D01*
X137020722Y-154872732D01*
X137020719Y-154872729D01*
X137020715Y-154872723D01*
X136868243Y-154707097D01*
X136868238Y-154707092D01*
X136690577Y-154568812D01*
X136690572Y-154568808D01*
X136492580Y-154461661D01*
X136492577Y-154461659D01*
X136492574Y-154461658D01*
X136492571Y-154461657D01*
X136492569Y-154461656D01*
X136279637Y-154388556D01*
X136057569Y-154351500D01*
X135832431Y-154351500D01*
X135610362Y-154388556D01*
X135397430Y-154461656D01*
X135397419Y-154461661D01*
X135199427Y-154568808D01*
X135199422Y-154568812D01*
X135021761Y-154707092D01*
X135021756Y-154707097D01*
X134869284Y-154872723D01*
X134869276Y-154872734D01*
X134778808Y-155011206D01*
X134725662Y-155056562D01*
X134656431Y-155065986D01*
X134593095Y-155036484D01*
X134571192Y-155011206D01*
X134489208Y-154885721D01*
X134480722Y-154872732D01*
X134480719Y-154872729D01*
X134480715Y-154872723D01*
X134328243Y-154707097D01*
X134328238Y-154707092D01*
X134150577Y-154568812D01*
X134150572Y-154568808D01*
X133952580Y-154461661D01*
X133952577Y-154461659D01*
X133952574Y-154461658D01*
X133952571Y-154461657D01*
X133952569Y-154461656D01*
X133739637Y-154388556D01*
X133517569Y-154351500D01*
X133292431Y-154351500D01*
X133070362Y-154388556D01*
X132857430Y-154461656D01*
X132857419Y-154461661D01*
X132659427Y-154568808D01*
X132659422Y-154568812D01*
X132481761Y-154707092D01*
X132412092Y-154782773D01*
X132352205Y-154818763D01*
X132282367Y-154816662D01*
X132224751Y-154777137D01*
X132204681Y-154742122D01*
X132158354Y-154617913D01*
X132158350Y-154617906D01*
X132072190Y-154502812D01*
X132072187Y-154502809D01*
X131957093Y-154416649D01*
X131957086Y-154416645D01*
X131822379Y-154366403D01*
X131822372Y-154366401D01*
X131762844Y-154360000D01*
X131115000Y-154360000D01*
X131115000Y-155263505D01*
X131010161Y-155215627D01*
X130901473Y-155200000D01*
X130828527Y-155200000D01*
X130719839Y-155215627D01*
X130615000Y-155263505D01*
X130615000Y-154360000D01*
X129967155Y-154360000D01*
X129907627Y-154366401D01*
X129907620Y-154366403D01*
X129772913Y-154416645D01*
X129772906Y-154416649D01*
X129657812Y-154502809D01*
X129657809Y-154502812D01*
X129571649Y-154617906D01*
X129571646Y-154617911D01*
X129525318Y-154742123D01*
X129483446Y-154798056D01*
X129417982Y-154822473D01*
X129349709Y-154807621D01*
X129317910Y-154782775D01*
X129248240Y-154707094D01*
X129070576Y-154568811D01*
X129070575Y-154568810D01*
X129070572Y-154568808D01*
X128872580Y-154461661D01*
X128872577Y-154461659D01*
X128872574Y-154461658D01*
X128872571Y-154461657D01*
X128872569Y-154461656D01*
X128659637Y-154388556D01*
X128437569Y-154351500D01*
X128212431Y-154351500D01*
X127990362Y-154388556D01*
X127777430Y-154461656D01*
X127777419Y-154461661D01*
X127579427Y-154568808D01*
X127579422Y-154568812D01*
X127401761Y-154707092D01*
X127401756Y-154707097D01*
X127249284Y-154872723D01*
X127249276Y-154872734D01*
X127158808Y-155011206D01*
X127105662Y-155056562D01*
X127036431Y-155065986D01*
X126973095Y-155036484D01*
X126951192Y-155011206D01*
X126869208Y-154885721D01*
X126860722Y-154872732D01*
X126860719Y-154872729D01*
X126860715Y-154872723D01*
X126708243Y-154707097D01*
X126708238Y-154707092D01*
X126530577Y-154568812D01*
X126530572Y-154568808D01*
X126332580Y-154461661D01*
X126332577Y-154461659D01*
X126332574Y-154461658D01*
X126332571Y-154461657D01*
X126332569Y-154461656D01*
X126119637Y-154388556D01*
X125897569Y-154351500D01*
X125672431Y-154351500D01*
X125499009Y-154380438D01*
X125429644Y-154372056D01*
X125375822Y-154327503D01*
X125354632Y-154260924D01*
X125354600Y-154258129D01*
X125354600Y-149644442D01*
X125374285Y-149577403D01*
X125390914Y-149556766D01*
X125702680Y-149245000D01*
X144221693Y-149245000D01*
X144221884Y-149247185D01*
X144223316Y-149263559D01*
X144223662Y-149279921D01*
X144222684Y-149301687D01*
X144222685Y-149301690D01*
X144233494Y-149381491D01*
X144234144Y-149387327D01*
X144240885Y-149464371D01*
X144240885Y-149464372D01*
X144246601Y-149485705D01*
X144249702Y-149501142D01*
X144250748Y-149508856D01*
X144253094Y-149526174D01*
X144253096Y-149526183D01*
X144276911Y-149599480D01*
X144278754Y-149605702D01*
X144297877Y-149677065D01*
X144297881Y-149677078D01*
X144308675Y-149700227D01*
X144314221Y-149714307D01*
X144317550Y-149724551D01*
X144323097Y-149741621D01*
X144342474Y-149777629D01*
X144357980Y-149806445D01*
X144361167Y-149812798D01*
X144390942Y-149876651D01*
X144407580Y-149900413D01*
X144415194Y-149912768D01*
X144430444Y-149941106D01*
X144430445Y-149941108D01*
X144474192Y-149995964D01*
X144478819Y-150002152D01*
X144483468Y-150008791D01*
X144517251Y-150057038D01*
X144517253Y-150057040D01*
X144540199Y-150079986D01*
X144549465Y-150090354D01*
X144571685Y-150118217D01*
X144621935Y-150162119D01*
X144628033Y-150167820D01*
X144672955Y-150212743D01*
X144672958Y-150212745D01*
X144672962Y-150212749D01*
X144702390Y-150233354D01*
X144712837Y-150241537D01*
X144742282Y-150267263D01*
X144796607Y-150299720D01*
X144804123Y-150304589D01*
X144846876Y-150334526D01*
X144853346Y-150339056D01*
X144889042Y-150355701D01*
X144900217Y-150361625D01*
X144936750Y-150383453D01*
X144942402Y-150385574D01*
X144992762Y-150404474D01*
X145001598Y-150408186D01*
X145052924Y-150432120D01*
X145094300Y-150443206D01*
X145105763Y-150446884D01*
X145110554Y-150448682D01*
X145148839Y-150463051D01*
X145204309Y-150473117D01*
X145214231Y-150475342D01*
X145265629Y-150489115D01*
X145311745Y-150493149D01*
X145323069Y-150494668D01*
X145357056Y-150500836D01*
X145371732Y-150503500D01*
X145371733Y-150503500D01*
X145424642Y-150503500D01*
X145435449Y-150503972D01*
X145484998Y-150508307D01*
X145484999Y-150508307D01*
X145484999Y-150508306D01*
X145485000Y-150508307D01*
X145535701Y-150503871D01*
X145540927Y-150503526D01*
X145541504Y-150503500D01*
X145541522Y-150503500D01*
X145595424Y-150498648D01*
X145596391Y-150498561D01*
X145596398Y-150498648D01*
X145596698Y-150498534D01*
X145704371Y-150489115D01*
X145704371Y-150489114D01*
X145706336Y-150488943D01*
X145708703Y-150488628D01*
X145710613Y-150488281D01*
X145710622Y-150488281D01*
X145814956Y-150459485D01*
X145815704Y-150459282D01*
X145917076Y-150432120D01*
X145917087Y-150432114D01*
X145921693Y-150430438D01*
X145927339Y-150428634D01*
X145928986Y-150428015D01*
X145928993Y-150428014D01*
X146023340Y-150382577D01*
X146024638Y-150381962D01*
X146116654Y-150339056D01*
X146116664Y-150339048D01*
X146121350Y-150336345D01*
X146121421Y-150336468D01*
X146132206Y-150330152D01*
X146133093Y-150329725D01*
X146133100Y-150329720D01*
X146214986Y-150270226D01*
X146216688Y-150269010D01*
X146297038Y-150212749D01*
X146297951Y-150211835D01*
X146312752Y-150199193D01*
X146316363Y-150196571D01*
X146383966Y-150125862D01*
X146385869Y-150123917D01*
X146419171Y-150090616D01*
X146452749Y-150057038D01*
X146455476Y-150053142D01*
X146467428Y-150038568D01*
X146472912Y-150032834D01*
X146524911Y-149954056D01*
X146526750Y-149951352D01*
X146579056Y-149876654D01*
X146582538Y-149869185D01*
X146591436Y-149853276D01*
X146597710Y-149843772D01*
X146609697Y-149815726D01*
X146633439Y-149760177D01*
X146635067Y-149756534D01*
X146640664Y-149744532D01*
X146672120Y-149677076D01*
X146675145Y-149665782D01*
X146680896Y-149649147D01*
X146686743Y-149635470D01*
X146702682Y-149565631D01*
X146706199Y-149550223D01*
X146707305Y-149545760D01*
X146707509Y-149545000D01*
X147101673Y-149545000D01*
X147103382Y-149565631D01*
X147108766Y-149630616D01*
X147109077Y-149635591D01*
X147112856Y-149724543D01*
X147112857Y-149724553D01*
X147117163Y-149744532D01*
X147119522Y-149760415D01*
X147120947Y-149777617D01*
X147120949Y-149777629D01*
X147142871Y-149864198D01*
X147143882Y-149868511D01*
X147145636Y-149876651D01*
X147162329Y-149954103D01*
X147163371Y-149958935D01*
X147169707Y-149974703D01*
X147174855Y-149990497D01*
X147178250Y-150003905D01*
X147215505Y-150088838D01*
X147217007Y-150092413D01*
X147252767Y-150181404D01*
X147259876Y-150192949D01*
X147267843Y-150208155D01*
X147272015Y-150217668D01*
X147272016Y-150217669D01*
X147316756Y-150286150D01*
X147324626Y-150298195D01*
X147326363Y-150300933D01*
X147378476Y-150385569D01*
X147378478Y-150385572D01*
X147378480Y-150385574D01*
X147385158Y-150393161D01*
X147395886Y-150407267D01*
X147399686Y-150413083D01*
X147467202Y-150486424D01*
X147468942Y-150488357D01*
X147506807Y-150531380D01*
X147536883Y-150565553D01*
X147542070Y-150569741D01*
X147555406Y-150582239D01*
X147557780Y-150584818D01*
X147639162Y-150648160D01*
X147640781Y-150649445D01*
X147723415Y-150716169D01*
X147723421Y-150716173D01*
X147723424Y-150716175D01*
X147726165Y-150717706D01*
X147726240Y-150717748D01*
X147741935Y-150728152D01*
X147741983Y-150728190D01*
X147741987Y-150728192D01*
X147835605Y-150778855D01*
X147837062Y-150779656D01*
X147932744Y-150833107D01*
X147935140Y-150834190D01*
X147942477Y-150837448D01*
X147942575Y-150837226D01*
X147947263Y-150839281D01*
X147947273Y-150839287D01*
X148051432Y-150875045D01*
X148052043Y-150875258D01*
X148158806Y-150912980D01*
X148158811Y-150912981D01*
X148160366Y-150913386D01*
X148166471Y-150914680D01*
X148168040Y-150915077D01*
X148168049Y-150915080D01*
X148280002Y-150933761D01*
X148280296Y-150933811D01*
X148331886Y-150942657D01*
X148395111Y-150953499D01*
X148395119Y-150953500D01*
X148631707Y-150953500D01*
X148631712Y-150953500D01*
X148686018Y-150944437D01*
X148695912Y-150943194D01*
X148753887Y-150938260D01*
X148753888Y-150938259D01*
X148753898Y-150938259D01*
X148803611Y-150925313D01*
X148814393Y-150923015D01*
X148861951Y-150915080D01*
X148917278Y-150896085D01*
X148926278Y-150893374D01*
X148985924Y-150877844D01*
X149029603Y-150858099D01*
X149040388Y-150853821D01*
X149082727Y-150839287D01*
X149137189Y-150809812D01*
X149145087Y-150805897D01*
X149204402Y-150779086D01*
X149241268Y-150754167D01*
X149251676Y-150747855D01*
X149288017Y-150728190D01*
X149339592Y-150688046D01*
X149346295Y-150683182D01*
X149403044Y-150644827D01*
X149403043Y-150644827D01*
X149403047Y-150644825D01*
X149432701Y-150616402D01*
X149442306Y-150608099D01*
X149472220Y-150584818D01*
X149518811Y-150534205D01*
X149524191Y-150528717D01*
X149576144Y-150478925D01*
X149598515Y-150448676D01*
X149606971Y-150438439D01*
X149630314Y-150413083D01*
X149669801Y-150352640D01*
X149673895Y-150346755D01*
X149718715Y-150286157D01*
X149734109Y-150255622D01*
X149741013Y-150243642D01*
X149757984Y-150217669D01*
X149788367Y-150148400D01*
X149791158Y-150142471D01*
X149826657Y-150072067D01*
X149835661Y-150042662D01*
X149840669Y-150029165D01*
X149851749Y-150003907D01*
X149871155Y-149927268D01*
X149872786Y-149921433D01*
X149896864Y-149842815D01*
X149900333Y-149815717D01*
X149903120Y-149801043D01*
X149909051Y-149777626D01*
X149915862Y-149695422D01*
X149916442Y-149689922D01*
X149918087Y-149677076D01*
X149927318Y-149604995D01*
X149926304Y-149581131D01*
X149926615Y-149565651D01*
X149928327Y-149545000D01*
X149921232Y-149459389D01*
X149920922Y-149454426D01*
X149919989Y-149432467D01*
X149918379Y-149394553D01*
X149917144Y-149365460D01*
X149917143Y-149365457D01*
X149917143Y-149365449D01*
X149912834Y-149345459D01*
X149910477Y-149329589D01*
X149909051Y-149312374D01*
X149887125Y-149225790D01*
X149886113Y-149221472D01*
X149885424Y-149218276D01*
X149866630Y-149131068D01*
X149860291Y-149115294D01*
X149855146Y-149099509D01*
X149851749Y-149086093D01*
X149814484Y-149001138D01*
X149813009Y-148997630D01*
X149777233Y-148908596D01*
X149770123Y-148897049D01*
X149762158Y-148881848D01*
X149757984Y-148872331D01*
X149705345Y-148791761D01*
X149703631Y-148789058D01*
X149651524Y-148704431D01*
X149651518Y-148704424D01*
X149651515Y-148704420D01*
X149644839Y-148696834D01*
X149634118Y-148682739D01*
X149630315Y-148676919D01*
X149630314Y-148676917D01*
X149630311Y-148676914D01*
X149630307Y-148676908D01*
X149578665Y-148620812D01*
X149562836Y-148603617D01*
X149561060Y-148601645D01*
X149493119Y-148524449D01*
X149493117Y-148524447D01*
X149493114Y-148524444D01*
X149487929Y-148520258D01*
X149474597Y-148507765D01*
X149472220Y-148505182D01*
X149457883Y-148494023D01*
X149390928Y-148441909D01*
X149389192Y-148440533D01*
X149369392Y-148424546D01*
X149306576Y-148373825D01*
X149306570Y-148373822D01*
X149306567Y-148373819D01*
X149303750Y-148372245D01*
X149288070Y-148361851D01*
X149288020Y-148361812D01*
X149288013Y-148361807D01*
X149194393Y-148311143D01*
X149192937Y-148310342D01*
X149097265Y-148256897D01*
X149094999Y-148255873D01*
X149087519Y-148252551D01*
X149087422Y-148252773D01*
X149082725Y-148250712D01*
X148978780Y-148215027D01*
X148977735Y-148214663D01*
X148871196Y-148177020D01*
X148869654Y-148176619D01*
X148863574Y-148175330D01*
X148861967Y-148174923D01*
X148861952Y-148174920D01*
X148861951Y-148174920D01*
X148790502Y-148162996D01*
X148750001Y-148156238D01*
X148749456Y-148156145D01*
X148634891Y-148136500D01*
X148634881Y-148136500D01*
X148631712Y-148136500D01*
X148398288Y-148136500D01*
X148343988Y-148145560D01*
X148334098Y-148146804D01*
X148276101Y-148151741D01*
X148276097Y-148151741D01*
X148226414Y-148164678D01*
X148215581Y-148166988D01*
X148168049Y-148174920D01*
X148112737Y-148193907D01*
X148103728Y-148196622D01*
X148061202Y-148207696D01*
X148044076Y-148212156D01*
X148044073Y-148212157D01*
X148044070Y-148212158D01*
X148000408Y-148231894D01*
X147989600Y-148236181D01*
X147947274Y-148250712D01*
X147892827Y-148280176D01*
X147884892Y-148284110D01*
X147825597Y-148310914D01*
X147825594Y-148310916D01*
X147788733Y-148335829D01*
X147778318Y-148342146D01*
X147741978Y-148361812D01*
X147690419Y-148401942D01*
X147683697Y-148406822D01*
X147626951Y-148445176D01*
X147626948Y-148445179D01*
X147597311Y-148473583D01*
X147587680Y-148481908D01*
X147557781Y-148505181D01*
X147557780Y-148505182D01*
X147511210Y-148555768D01*
X147505785Y-148561303D01*
X147453857Y-148611073D01*
X147431479Y-148641328D01*
X147423020Y-148651568D01*
X147399684Y-148676918D01*
X147399681Y-148676922D01*
X147360207Y-148737342D01*
X147356095Y-148743254D01*
X147311287Y-148803839D01*
X147311286Y-148803840D01*
X147295892Y-148834372D01*
X147288982Y-148846361D01*
X147272015Y-148872332D01*
X147256110Y-148908593D01*
X147252254Y-148917384D01*
X147241646Y-148941567D01*
X147238813Y-148947580D01*
X147203342Y-149017933D01*
X147203341Y-149017934D01*
X147194334Y-149047344D01*
X147189329Y-149060834D01*
X147178249Y-149086094D01*
X147178249Y-149086095D01*
X147158843Y-149162727D01*
X147157203Y-149168593D01*
X147133138Y-149247177D01*
X147133135Y-149247190D01*
X147129666Y-149274277D01*
X147126877Y-149288960D01*
X147120950Y-149312367D01*
X147120948Y-149312379D01*
X147114138Y-149394553D01*
X147113558Y-149400060D01*
X147102682Y-149485003D01*
X147102681Y-149485005D01*
X147103694Y-149508856D01*
X147103383Y-149524349D01*
X147101673Y-149544995D01*
X147101673Y-149545000D01*
X146707509Y-149545000D01*
X146729115Y-149464371D01*
X146730436Y-149449259D01*
X146733073Y-149432479D01*
X146737151Y-149414615D01*
X146740920Y-149330686D01*
X146741260Y-149325539D01*
X146748307Y-149245000D01*
X146746683Y-149226447D01*
X146746337Y-149210078D01*
X146747315Y-149188309D01*
X146736501Y-149108488D01*
X146735853Y-149102661D01*
X146735576Y-149099497D01*
X146729115Y-149025629D01*
X146726943Y-149017523D01*
X146723398Y-149004291D01*
X146720295Y-148988846D01*
X146716906Y-148963825D01*
X146693081Y-148890502D01*
X146691245Y-148884300D01*
X146690586Y-148881842D01*
X146683267Y-148854525D01*
X146672123Y-148812933D01*
X146672119Y-148812923D01*
X146672117Y-148812917D01*
X146661323Y-148789769D01*
X146655774Y-148775682D01*
X146651276Y-148761838D01*
X146646903Y-148748379D01*
X146646900Y-148748375D01*
X146646899Y-148748370D01*
X146612010Y-148683536D01*
X146608834Y-148677208D01*
X146579056Y-148613347D01*
X146579055Y-148613346D01*
X146579054Y-148613343D01*
X146579053Y-148613342D01*
X146562421Y-148589590D01*
X146554801Y-148577224D01*
X146539555Y-148548892D01*
X146495799Y-148494023D01*
X146491171Y-148487834D01*
X146452750Y-148432963D01*
X146452746Y-148432959D01*
X146429791Y-148410004D01*
X146420532Y-148399643D01*
X146398312Y-148371780D01*
X146348063Y-148327878D01*
X146341967Y-148322179D01*
X146297040Y-148277252D01*
X146267614Y-148256648D01*
X146257160Y-148248460D01*
X146227718Y-148222737D01*
X146214204Y-148214663D01*
X146210012Y-148212158D01*
X146173401Y-148190284D01*
X146165889Y-148185418D01*
X146116656Y-148150945D01*
X146080972Y-148134305D01*
X146069780Y-148128372D01*
X146035797Y-148108069D01*
X146033250Y-148106547D01*
X145977227Y-148085521D01*
X145968412Y-148081818D01*
X145917076Y-148057880D01*
X145917072Y-148057878D01*
X145917065Y-148057876D01*
X145875704Y-148046793D01*
X145864231Y-148043113D01*
X145821159Y-148026948D01*
X145765703Y-148016884D01*
X145755754Y-148014652D01*
X145704372Y-148000885D01*
X145658258Y-147996850D01*
X145646928Y-147995330D01*
X145598267Y-147986500D01*
X145598266Y-147986500D01*
X145545358Y-147986500D01*
X145534551Y-147986028D01*
X145485002Y-147981693D01*
X145484997Y-147981693D01*
X145434334Y-147986125D01*
X145429114Y-147986471D01*
X145428490Y-147986499D01*
X145428479Y-147986500D01*
X145428478Y-147986500D01*
X145416635Y-147987565D01*
X145373628Y-147991436D01*
X145373322Y-147991463D01*
X145263746Y-148001049D01*
X145261212Y-148001386D01*
X145259371Y-148001720D01*
X145155218Y-148030465D01*
X145154325Y-148030708D01*
X145052916Y-148057882D01*
X145048251Y-148059579D01*
X145042655Y-148061366D01*
X145041010Y-148061984D01*
X144946682Y-148107409D01*
X144945288Y-148108069D01*
X144853353Y-148150940D01*
X144848658Y-148153651D01*
X144848587Y-148153529D01*
X144837824Y-148159833D01*
X144836908Y-148160274D01*
X144836903Y-148160276D01*
X144754977Y-148219798D01*
X144753219Y-148221052D01*
X144672960Y-148277252D01*
X144672027Y-148278185D01*
X144657264Y-148290793D01*
X144653641Y-148293425D01*
X144653630Y-148293435D01*
X144586054Y-148364112D01*
X144584112Y-148366098D01*
X144517252Y-148432959D01*
X144517246Y-148432967D01*
X144514506Y-148436880D01*
X144502581Y-148451419D01*
X144497089Y-148457163D01*
X144497082Y-148457172D01*
X144445108Y-148535909D01*
X144443203Y-148538711D01*
X144436074Y-148548894D01*
X144390942Y-148613350D01*
X144390941Y-148613352D01*
X144387462Y-148620812D01*
X144378576Y-148636702D01*
X144372292Y-148646222D01*
X144372291Y-148646223D01*
X144336566Y-148729807D01*
X144334927Y-148733476D01*
X144297880Y-148812922D01*
X144297880Y-148812923D01*
X144294852Y-148824222D01*
X144289102Y-148840854D01*
X144283259Y-148854525D01*
X144283256Y-148854533D01*
X144263807Y-148939747D01*
X144262691Y-148944247D01*
X144240886Y-149025623D01*
X144240884Y-149025631D01*
X144239563Y-149040736D01*
X144236928Y-149057510D01*
X144232849Y-149075386D01*
X144229080Y-149159274D01*
X144228733Y-149164513D01*
X144221693Y-149244995D01*
X144221693Y-149245000D01*
X125702680Y-149245000D01*
X130552683Y-144394996D01*
X144221693Y-144394996D01*
X144223316Y-144413559D01*
X144223662Y-144429921D01*
X144222684Y-144451687D01*
X144222685Y-144451690D01*
X144233494Y-144531491D01*
X144234144Y-144537327D01*
X144240885Y-144614371D01*
X144240885Y-144614372D01*
X144246601Y-144635705D01*
X144249702Y-144651142D01*
X144253094Y-144676174D01*
X144253096Y-144676183D01*
X144276911Y-144749480D01*
X144278754Y-144755702D01*
X144297877Y-144827065D01*
X144297881Y-144827078D01*
X144308675Y-144850227D01*
X144314221Y-144864307D01*
X144323095Y-144891615D01*
X144323097Y-144891621D01*
X144332105Y-144908360D01*
X144357980Y-144956445D01*
X144361167Y-144962798D01*
X144390942Y-145026651D01*
X144407580Y-145050413D01*
X144415194Y-145062768D01*
X144430444Y-145091106D01*
X144430445Y-145091108D01*
X144474192Y-145145964D01*
X144478819Y-145152152D01*
X144517251Y-145207038D01*
X144517253Y-145207040D01*
X144540199Y-145229986D01*
X144549465Y-145240354D01*
X144571686Y-145268218D01*
X144583100Y-145278190D01*
X144621935Y-145312119D01*
X144628033Y-145317820D01*
X144672955Y-145362743D01*
X144672958Y-145362745D01*
X144672962Y-145362749D01*
X144702390Y-145383354D01*
X144712837Y-145391537D01*
X144742282Y-145417263D01*
X144796607Y-145449720D01*
X144804123Y-145454589D01*
X144852207Y-145488259D01*
X144853346Y-145489056D01*
X144889042Y-145505701D01*
X144900217Y-145511625D01*
X144936750Y-145533453D01*
X144992762Y-145554474D01*
X145001598Y-145558186D01*
X145052924Y-145582120D01*
X145094300Y-145593206D01*
X145105763Y-145596884D01*
X145117913Y-145601444D01*
X145148839Y-145613051D01*
X145204309Y-145623117D01*
X145214231Y-145625342D01*
X145265629Y-145639115D01*
X145311745Y-145643149D01*
X145323069Y-145644668D01*
X145357056Y-145650836D01*
X145371732Y-145653500D01*
X145371733Y-145653500D01*
X145424642Y-145653500D01*
X145435449Y-145653972D01*
X145484998Y-145658307D01*
X145484999Y-145658307D01*
X145484999Y-145658306D01*
X145485000Y-145658307D01*
X145535701Y-145653871D01*
X145540927Y-145653526D01*
X145541504Y-145653500D01*
X145541522Y-145653500D01*
X145595424Y-145648648D01*
X145596391Y-145648561D01*
X145596398Y-145648648D01*
X145596698Y-145648534D01*
X145704371Y-145639115D01*
X145704371Y-145639114D01*
X145706336Y-145638943D01*
X145708703Y-145638628D01*
X145710613Y-145638281D01*
X145710622Y-145638281D01*
X145814956Y-145609485D01*
X145815704Y-145609282D01*
X145917076Y-145582120D01*
X145917087Y-145582114D01*
X145921693Y-145580438D01*
X145927339Y-145578634D01*
X145928986Y-145578015D01*
X145928993Y-145578014D01*
X146023340Y-145532577D01*
X146024638Y-145531962D01*
X146116654Y-145489056D01*
X146116664Y-145489048D01*
X146121350Y-145486345D01*
X146121421Y-145486468D01*
X146132206Y-145480152D01*
X146133093Y-145479725D01*
X146155582Y-145463386D01*
X146214986Y-145420226D01*
X146216688Y-145419010D01*
X146297038Y-145362749D01*
X146297951Y-145361835D01*
X146312752Y-145349193D01*
X146316363Y-145346571D01*
X146383966Y-145275862D01*
X146385869Y-145273917D01*
X146452746Y-145207041D01*
X146452746Y-145207040D01*
X146452749Y-145207038D01*
X146455476Y-145203142D01*
X146467428Y-145188568D01*
X146472912Y-145182834D01*
X146524911Y-145104056D01*
X146526750Y-145101352D01*
X146579056Y-145026654D01*
X146582538Y-145019185D01*
X146591436Y-145003276D01*
X146597710Y-144993772D01*
X146610829Y-144963077D01*
X146633439Y-144910177D01*
X146635067Y-144906534D01*
X146672120Y-144827076D01*
X146675145Y-144815782D01*
X146680896Y-144799147D01*
X146686743Y-144785470D01*
X146701088Y-144722616D01*
X146706199Y-144700223D01*
X146707305Y-144695760D01*
X146729115Y-144614371D01*
X146730436Y-144599259D01*
X146733073Y-144582479D01*
X146737151Y-144564615D01*
X146740920Y-144480686D01*
X146741260Y-144475539D01*
X146748307Y-144395000D01*
X146746683Y-144376447D01*
X146746337Y-144360078D01*
X146746417Y-144358295D01*
X146747315Y-144338309D01*
X146736501Y-144258488D01*
X146735853Y-144252661D01*
X146734979Y-144242672D01*
X146729115Y-144175629D01*
X146726943Y-144167523D01*
X146723398Y-144154291D01*
X146720295Y-144138846D01*
X146716906Y-144113825D01*
X146710789Y-144095000D01*
X147101673Y-144095000D01*
X147103233Y-144113825D01*
X147108766Y-144180616D01*
X147109077Y-144185591D01*
X147112856Y-144274543D01*
X147112857Y-144274553D01*
X147117163Y-144294532D01*
X147119522Y-144310415D01*
X147120947Y-144327617D01*
X147120949Y-144327629D01*
X147142871Y-144414198D01*
X147143882Y-144418511D01*
X147162386Y-144504368D01*
X147163371Y-144508935D01*
X147169707Y-144524703D01*
X147174855Y-144540497D01*
X147178250Y-144553905D01*
X147215505Y-144638838D01*
X147217007Y-144642413D01*
X147220518Y-144651150D01*
X147252767Y-144731404D01*
X147259876Y-144742949D01*
X147267843Y-144758155D01*
X147272015Y-144767668D01*
X147272016Y-144767669D01*
X147316756Y-144836150D01*
X147324626Y-144848195D01*
X147326363Y-144850933D01*
X147378476Y-144935569D01*
X147378478Y-144935572D01*
X147378480Y-144935574D01*
X147385158Y-144943161D01*
X147395886Y-144957267D01*
X147399686Y-144963083D01*
X147467202Y-145036424D01*
X147468942Y-145038357D01*
X147536881Y-145115551D01*
X147536883Y-145115553D01*
X147542070Y-145119741D01*
X147555406Y-145132239D01*
X147557780Y-145134818D01*
X147639162Y-145198160D01*
X147640781Y-145199445D01*
X147723415Y-145266169D01*
X147723421Y-145266173D01*
X147723424Y-145266175D01*
X147726165Y-145267706D01*
X147726240Y-145267748D01*
X147741935Y-145278152D01*
X147741983Y-145278190D01*
X147741987Y-145278192D01*
X147835605Y-145328855D01*
X147837062Y-145329656D01*
X147917497Y-145374590D01*
X147932744Y-145383107D01*
X147935140Y-145384190D01*
X147942477Y-145387448D01*
X147942575Y-145387226D01*
X147947263Y-145389281D01*
X147947273Y-145389287D01*
X148051432Y-145425045D01*
X148052043Y-145425258D01*
X148158806Y-145462980D01*
X148158811Y-145462981D01*
X148160366Y-145463386D01*
X148166471Y-145464680D01*
X148168040Y-145465077D01*
X148168049Y-145465080D01*
X148280002Y-145483761D01*
X148280296Y-145483811D01*
X148331886Y-145492657D01*
X148395111Y-145503499D01*
X148395119Y-145503500D01*
X148631707Y-145503500D01*
X148631712Y-145503500D01*
X148686018Y-145494437D01*
X148695912Y-145493194D01*
X148753887Y-145488260D01*
X148753888Y-145488259D01*
X148753898Y-145488259D01*
X148803611Y-145475313D01*
X148814393Y-145473015D01*
X148861951Y-145465080D01*
X148917278Y-145446085D01*
X148926278Y-145443374D01*
X148985924Y-145427844D01*
X149029603Y-145408099D01*
X149040388Y-145403821D01*
X149082727Y-145389287D01*
X149137189Y-145359812D01*
X149145087Y-145355897D01*
X149204402Y-145329086D01*
X149241268Y-145304167D01*
X149251676Y-145297855D01*
X149288017Y-145278190D01*
X149339592Y-145238046D01*
X149346295Y-145233182D01*
X149384977Y-145207038D01*
X149403047Y-145194825D01*
X149432701Y-145166402D01*
X149442306Y-145158099D01*
X149472220Y-145134818D01*
X149518811Y-145084205D01*
X149524191Y-145078717D01*
X149576144Y-145028925D01*
X149598515Y-144998676D01*
X149606971Y-144988439D01*
X149630314Y-144963083D01*
X149669801Y-144902640D01*
X149673895Y-144896755D01*
X149718715Y-144836157D01*
X149734109Y-144805622D01*
X149741013Y-144793642D01*
X149757984Y-144767669D01*
X149788367Y-144698400D01*
X149791158Y-144692471D01*
X149826657Y-144622067D01*
X149835661Y-144592662D01*
X149840669Y-144579165D01*
X149851749Y-144553907D01*
X149871155Y-144477268D01*
X149872786Y-144471433D01*
X149896864Y-144392815D01*
X149900333Y-144365717D01*
X149903120Y-144351043D01*
X149909051Y-144327626D01*
X149915862Y-144245422D01*
X149916442Y-144239922D01*
X149927318Y-144154995D01*
X149926304Y-144131131D01*
X149926615Y-144115651D01*
X149928327Y-144095000D01*
X149928080Y-144092021D01*
X149923557Y-144037438D01*
X149921232Y-144009389D01*
X149920922Y-144004426D01*
X149917144Y-143915460D01*
X149917143Y-143915457D01*
X149917143Y-143915449D01*
X149912834Y-143895459D01*
X149910477Y-143879589D01*
X149909051Y-143862374D01*
X149887125Y-143775790D01*
X149886113Y-143771472D01*
X149884361Y-143763343D01*
X149866630Y-143681068D01*
X149860291Y-143665294D01*
X149855146Y-143649509D01*
X149851749Y-143636093D01*
X149814484Y-143551138D01*
X149813009Y-143547630D01*
X149777233Y-143458596D01*
X149770123Y-143447049D01*
X149762158Y-143431848D01*
X149757984Y-143422331D01*
X149705345Y-143341761D01*
X149703631Y-143339058D01*
X149651524Y-143254431D01*
X149651518Y-143254424D01*
X149651515Y-143254420D01*
X149644839Y-143246834D01*
X149634118Y-143232739D01*
X149630315Y-143226919D01*
X149630314Y-143226917D01*
X149630311Y-143226914D01*
X149630307Y-143226908D01*
X149587692Y-143180618D01*
X149562836Y-143153617D01*
X149561060Y-143151645D01*
X149493119Y-143074449D01*
X149493117Y-143074447D01*
X149493114Y-143074444D01*
X149487929Y-143070258D01*
X149474597Y-143057765D01*
X149472220Y-143055182D01*
X149442318Y-143031908D01*
X149390928Y-142991909D01*
X149389192Y-142990533D01*
X149349589Y-142958556D01*
X149306576Y-142923825D01*
X149306570Y-142923822D01*
X149306567Y-142923819D01*
X149303750Y-142922245D01*
X149288070Y-142911851D01*
X149288020Y-142911812D01*
X149288013Y-142911807D01*
X149194393Y-142861143D01*
X149192937Y-142860342D01*
X149097265Y-142806897D01*
X149094999Y-142805873D01*
X149087519Y-142802551D01*
X149087422Y-142802773D01*
X149082725Y-142800712D01*
X148978780Y-142765027D01*
X148977735Y-142764663D01*
X148871196Y-142727020D01*
X148869654Y-142726619D01*
X148863574Y-142725330D01*
X148861967Y-142724923D01*
X148861952Y-142724920D01*
X148861951Y-142724920D01*
X148790502Y-142712996D01*
X148750001Y-142706238D01*
X148749456Y-142706145D01*
X148634891Y-142686500D01*
X148634881Y-142686500D01*
X148631712Y-142686500D01*
X148398288Y-142686500D01*
X148343988Y-142695560D01*
X148334098Y-142696804D01*
X148276101Y-142701741D01*
X148276097Y-142701741D01*
X148226414Y-142714678D01*
X148215581Y-142716988D01*
X148168049Y-142724920D01*
X148112737Y-142743907D01*
X148103728Y-142746622D01*
X148061202Y-142757696D01*
X148044076Y-142762156D01*
X148044073Y-142762157D01*
X148044070Y-142762158D01*
X148000408Y-142781894D01*
X147989600Y-142786181D01*
X147947274Y-142800712D01*
X147892827Y-142830176D01*
X147884892Y-142834110D01*
X147825597Y-142860914D01*
X147825594Y-142860916D01*
X147788733Y-142885829D01*
X147778318Y-142892146D01*
X147741978Y-142911812D01*
X147690419Y-142951942D01*
X147683697Y-142956822D01*
X147626951Y-142995176D01*
X147626948Y-142995179D01*
X147597311Y-143023583D01*
X147587680Y-143031908D01*
X147557781Y-143055181D01*
X147557780Y-143055182D01*
X147511210Y-143105768D01*
X147505785Y-143111303D01*
X147453857Y-143161073D01*
X147431479Y-143191328D01*
X147423020Y-143201568D01*
X147399684Y-143226918D01*
X147399681Y-143226922D01*
X147360207Y-143287342D01*
X147356095Y-143293254D01*
X147311287Y-143353839D01*
X147311286Y-143353840D01*
X147295892Y-143384372D01*
X147288982Y-143396361D01*
X147272015Y-143422332D01*
X147241646Y-143491567D01*
X147238813Y-143497580D01*
X147203342Y-143567933D01*
X147203341Y-143567934D01*
X147194334Y-143597344D01*
X147189329Y-143610834D01*
X147178249Y-143636094D01*
X147178249Y-143636095D01*
X147158843Y-143712727D01*
X147157203Y-143718593D01*
X147133138Y-143797177D01*
X147133135Y-143797190D01*
X147129666Y-143824277D01*
X147126877Y-143838960D01*
X147120950Y-143862367D01*
X147120948Y-143862379D01*
X147114138Y-143944553D01*
X147113558Y-143950060D01*
X147102682Y-144035003D01*
X147102681Y-144035005D01*
X147103694Y-144058856D01*
X147103383Y-144074349D01*
X147101735Y-144094247D01*
X147101673Y-144095000D01*
X146710789Y-144095000D01*
X146693081Y-144040502D01*
X146691245Y-144034300D01*
X146672123Y-143962933D01*
X146672119Y-143962923D01*
X146672117Y-143962917D01*
X146661323Y-143939769D01*
X146655774Y-143925682D01*
X146652449Y-143915449D01*
X146646903Y-143898379D01*
X146646900Y-143898375D01*
X146646899Y-143898370D01*
X146612010Y-143833536D01*
X146608834Y-143827208D01*
X146579056Y-143763347D01*
X146579055Y-143763346D01*
X146579054Y-143763343D01*
X146579053Y-143763342D01*
X146562421Y-143739590D01*
X146554801Y-143727224D01*
X146539555Y-143698892D01*
X146495799Y-143644023D01*
X146491171Y-143637834D01*
X146452750Y-143582963D01*
X146452746Y-143582959D01*
X146429791Y-143560004D01*
X146420532Y-143549643D01*
X146420325Y-143549383D01*
X146398314Y-143521782D01*
X146398312Y-143521780D01*
X146348063Y-143477878D01*
X146341967Y-143472179D01*
X146297040Y-143427252D01*
X146267614Y-143406648D01*
X146257160Y-143398460D01*
X146227718Y-143372737D01*
X146173401Y-143340284D01*
X146165889Y-143335418D01*
X146116656Y-143300945D01*
X146080972Y-143284305D01*
X146069780Y-143278372D01*
X146035797Y-143258069D01*
X146033250Y-143256547D01*
X145977227Y-143235521D01*
X145968412Y-143231818D01*
X145917076Y-143207880D01*
X145917072Y-143207878D01*
X145917065Y-143207876D01*
X145875704Y-143196793D01*
X145864231Y-143193113D01*
X145821159Y-143176948D01*
X145765703Y-143166884D01*
X145755754Y-143164652D01*
X145704372Y-143150885D01*
X145658258Y-143146850D01*
X145646928Y-143145330D01*
X145598267Y-143136500D01*
X145598266Y-143136500D01*
X145545358Y-143136500D01*
X145534551Y-143136028D01*
X145485002Y-143131693D01*
X145484997Y-143131693D01*
X145434334Y-143136125D01*
X145429114Y-143136471D01*
X145428490Y-143136499D01*
X145428479Y-143136500D01*
X145428478Y-143136500D01*
X145416635Y-143137565D01*
X145373628Y-143141436D01*
X145373322Y-143141463D01*
X145263746Y-143151049D01*
X145261212Y-143151386D01*
X145259371Y-143151720D01*
X145155218Y-143180465D01*
X145154325Y-143180708D01*
X145052916Y-143207882D01*
X145048251Y-143209579D01*
X145042655Y-143211366D01*
X145041010Y-143211984D01*
X144946682Y-143257409D01*
X144945288Y-143258069D01*
X144853353Y-143300940D01*
X144848658Y-143303651D01*
X144848587Y-143303529D01*
X144837824Y-143309833D01*
X144836908Y-143310274D01*
X144836903Y-143310276D01*
X144754977Y-143369798D01*
X144753219Y-143371052D01*
X144672960Y-143427252D01*
X144672027Y-143428185D01*
X144657264Y-143440793D01*
X144653641Y-143443425D01*
X144653630Y-143443435D01*
X144586054Y-143514112D01*
X144584112Y-143516098D01*
X144517252Y-143582959D01*
X144517246Y-143582967D01*
X144514506Y-143586880D01*
X144502581Y-143601419D01*
X144497089Y-143607163D01*
X144497082Y-143607172D01*
X144445108Y-143685909D01*
X144443203Y-143688711D01*
X144422281Y-143718593D01*
X144390942Y-143763350D01*
X144390941Y-143763352D01*
X144387462Y-143770812D01*
X144378576Y-143786702D01*
X144372292Y-143796222D01*
X144372291Y-143796223D01*
X144336566Y-143879807D01*
X144334927Y-143883476D01*
X144297880Y-143962922D01*
X144297880Y-143962923D01*
X144294852Y-143974222D01*
X144289102Y-143990854D01*
X144283259Y-144004525D01*
X144283256Y-144004533D01*
X144263807Y-144089747D01*
X144262691Y-144094247D01*
X144240886Y-144175623D01*
X144240884Y-144175631D01*
X144239563Y-144190736D01*
X144236928Y-144207510D01*
X144232849Y-144225386D01*
X144229080Y-144309274D01*
X144228733Y-144314513D01*
X144221693Y-144394995D01*
X144221693Y-144394996D01*
X130552683Y-144394996D01*
X135638824Y-139308855D01*
X135700145Y-139275372D01*
X135746909Y-139274229D01*
X135832431Y-139288500D01*
X135832432Y-139288500D01*
X136057569Y-139288500D01*
X136279635Y-139251444D01*
X136492574Y-139178342D01*
X136690576Y-139071189D01*
X136868240Y-138932906D01*
X137020722Y-138767268D01*
X137111193Y-138628790D01*
X137164338Y-138583437D01*
X137233569Y-138574013D01*
X137296905Y-138603515D01*
X137318804Y-138628787D01*
X137409278Y-138767268D01*
X137409283Y-138767273D01*
X137409284Y-138767276D01*
X137497277Y-138862860D01*
X137561760Y-138932906D01*
X137739424Y-139071189D01*
X137739425Y-139071189D01*
X137739427Y-139071191D01*
X137836022Y-139123465D01*
X137937426Y-139178342D01*
X138150365Y-139251444D01*
X138372431Y-139288500D01*
X138597569Y-139288500D01*
X138819635Y-139251444D01*
X139032574Y-139178342D01*
X139230576Y-139071189D01*
X139408240Y-138932906D01*
X139560722Y-138767268D01*
X139651193Y-138628790D01*
X139704338Y-138583437D01*
X139773569Y-138574013D01*
X139836905Y-138603515D01*
X139858804Y-138628787D01*
X139949278Y-138767268D01*
X139949283Y-138767273D01*
X139949284Y-138767276D01*
X140037277Y-138862860D01*
X140101760Y-138932906D01*
X140279424Y-139071189D01*
X140279425Y-139071189D01*
X140279427Y-139071191D01*
X140376022Y-139123465D01*
X140477426Y-139178342D01*
X140690365Y-139251444D01*
X140912431Y-139288500D01*
X141137569Y-139288500D01*
X141359635Y-139251444D01*
X141572574Y-139178342D01*
X141770576Y-139071189D01*
X141948240Y-138932906D01*
X142017908Y-138857226D01*
X142077793Y-138821237D01*
X142147631Y-138823337D01*
X142205247Y-138862860D01*
X142225318Y-138897877D01*
X142271645Y-139022086D01*
X142271649Y-139022093D01*
X142357809Y-139137187D01*
X142357812Y-139137190D01*
X142472906Y-139223350D01*
X142472913Y-139223354D01*
X142607620Y-139273596D01*
X142607627Y-139273598D01*
X142667155Y-139279999D01*
X142667172Y-139280000D01*
X143315000Y-139280000D01*
X143315000Y-138376494D01*
X143419839Y-138424373D01*
X143528527Y-138440000D01*
X143601473Y-138440000D01*
X143710161Y-138424373D01*
X143815000Y-138376494D01*
X143815000Y-139280000D01*
X144462828Y-139280000D01*
X144462844Y-139279999D01*
X144522372Y-139273598D01*
X144522379Y-139273596D01*
X144657086Y-139223354D01*
X144657093Y-139223350D01*
X144772187Y-139137190D01*
X144772190Y-139137187D01*
X144858350Y-139022093D01*
X144858354Y-139022086D01*
X144904681Y-138897877D01*
X144946552Y-138841943D01*
X145012016Y-138817526D01*
X145080289Y-138832377D01*
X145112089Y-138857223D01*
X145181760Y-138932906D01*
X145359424Y-139071189D01*
X145359425Y-139071189D01*
X145359427Y-139071191D01*
X145456022Y-139123465D01*
X145557426Y-139178342D01*
X145770365Y-139251444D01*
X145992431Y-139288500D01*
X146217569Y-139288500D01*
X146439635Y-139251444D01*
X146652574Y-139178342D01*
X146850576Y-139071189D01*
X147028240Y-138932906D01*
X147180722Y-138767268D01*
X147271193Y-138628790D01*
X147324338Y-138583437D01*
X147393569Y-138574013D01*
X147456905Y-138603515D01*
X147478804Y-138628787D01*
X147569278Y-138767268D01*
X147569283Y-138767273D01*
X147569284Y-138767276D01*
X147657277Y-138862860D01*
X147721760Y-138932906D01*
X147899424Y-139071189D01*
X147899425Y-139071189D01*
X147899427Y-139071191D01*
X147996022Y-139123465D01*
X148097426Y-139178342D01*
X148310365Y-139251444D01*
X148532431Y-139288500D01*
X148757569Y-139288500D01*
X148979635Y-139251444D01*
X149192574Y-139178342D01*
X149390576Y-139071189D01*
X149568240Y-138932906D01*
X149720722Y-138767268D01*
X149843860Y-138578791D01*
X149934296Y-138372616D01*
X149989564Y-138154368D01*
X149999591Y-138033364D01*
X150008156Y-137930005D01*
X150008156Y-137929994D01*
X149989565Y-137705640D01*
X149989563Y-137705628D01*
X149934296Y-137487385D01*
X149843859Y-137281207D01*
X149720723Y-137092734D01*
X149720715Y-137092723D01*
X149568243Y-136927097D01*
X149568238Y-136927092D01*
X149390577Y-136788812D01*
X149390572Y-136788808D01*
X149192580Y-136681661D01*
X149192577Y-136681659D01*
X149192574Y-136681658D01*
X149192571Y-136681657D01*
X149192569Y-136681656D01*
X148979637Y-136608556D01*
X148757569Y-136571500D01*
X148532431Y-136571500D01*
X148310362Y-136608556D01*
X148097430Y-136681656D01*
X148097419Y-136681661D01*
X147899427Y-136788808D01*
X147899422Y-136788812D01*
X147721761Y-136927092D01*
X147721756Y-136927097D01*
X147569284Y-137092723D01*
X147569276Y-137092734D01*
X147478808Y-137231206D01*
X147425662Y-137276562D01*
X147356431Y-137285986D01*
X147293095Y-137256484D01*
X147271192Y-137231206D01*
X147180723Y-137092734D01*
X147180715Y-137092723D01*
X147028243Y-136927097D01*
X147028238Y-136927092D01*
X146850577Y-136788812D01*
X146850572Y-136788808D01*
X146652580Y-136681661D01*
X146652577Y-136681659D01*
X146652574Y-136681658D01*
X146652571Y-136681657D01*
X146652569Y-136681656D01*
X146439637Y-136608556D01*
X146217569Y-136571500D01*
X145992431Y-136571500D01*
X145770362Y-136608556D01*
X145557430Y-136681656D01*
X145557419Y-136681661D01*
X145359427Y-136788808D01*
X145359422Y-136788812D01*
X145181761Y-136927092D01*
X145112092Y-137002773D01*
X145052205Y-137038763D01*
X144982367Y-137036662D01*
X144924751Y-136997137D01*
X144904681Y-136962122D01*
X144858354Y-136837913D01*
X144858350Y-136837906D01*
X144772190Y-136722812D01*
X144772187Y-136722809D01*
X144657093Y-136636649D01*
X144657086Y-136636645D01*
X144522379Y-136586403D01*
X144522372Y-136586401D01*
X144462844Y-136580000D01*
X143815000Y-136580000D01*
X143815000Y-137483505D01*
X143710161Y-137435627D01*
X143601473Y-137420000D01*
X143528527Y-137420000D01*
X143419839Y-137435627D01*
X143315000Y-137483505D01*
X143315000Y-136580000D01*
X142667155Y-136580000D01*
X142607627Y-136586401D01*
X142607620Y-136586403D01*
X142472913Y-136636645D01*
X142472906Y-136636649D01*
X142357812Y-136722809D01*
X142357809Y-136722812D01*
X142271649Y-136837906D01*
X142271646Y-136837911D01*
X142225318Y-136962123D01*
X142183446Y-137018056D01*
X142117982Y-137042473D01*
X142049709Y-137027621D01*
X142017910Y-137002775D01*
X141948240Y-136927094D01*
X141770576Y-136788811D01*
X141770575Y-136788810D01*
X141770572Y-136788808D01*
X141572580Y-136681661D01*
X141572577Y-136681659D01*
X141572574Y-136681658D01*
X141572571Y-136681657D01*
X141572569Y-136681656D01*
X141359637Y-136608556D01*
X141137569Y-136571500D01*
X140912431Y-136571500D01*
X140690362Y-136608556D01*
X140477430Y-136681656D01*
X140477419Y-136681661D01*
X140279427Y-136788808D01*
X140279422Y-136788812D01*
X140101761Y-136927092D01*
X140101756Y-136927097D01*
X139949284Y-137092723D01*
X139949276Y-137092734D01*
X139858808Y-137231206D01*
X139805662Y-137276562D01*
X139736431Y-137285986D01*
X139673095Y-137256484D01*
X139651192Y-137231206D01*
X139560723Y-137092734D01*
X139560715Y-137092723D01*
X139408243Y-136927097D01*
X139408238Y-136927092D01*
X139230577Y-136788812D01*
X139230572Y-136788808D01*
X139032580Y-136681661D01*
X139032577Y-136681659D01*
X139032574Y-136681658D01*
X139032571Y-136681657D01*
X139032569Y-136681656D01*
X138819637Y-136608556D01*
X138597569Y-136571500D01*
X138372431Y-136571500D01*
X138150362Y-136608556D01*
X137937430Y-136681656D01*
X137937419Y-136681661D01*
X137739427Y-136788808D01*
X137739422Y-136788812D01*
X137561761Y-136927092D01*
X137561756Y-136927097D01*
X137409284Y-137092723D01*
X137409276Y-137092734D01*
X137318808Y-137231206D01*
X137265662Y-137276562D01*
X137196431Y-137285986D01*
X137133095Y-137256484D01*
X137111192Y-137231206D01*
X137020723Y-137092734D01*
X137020715Y-137092723D01*
X136868243Y-136927097D01*
X136868238Y-136927092D01*
X136690577Y-136788812D01*
X136690572Y-136788808D01*
X136492580Y-136681661D01*
X136492577Y-136681659D01*
X136492574Y-136681658D01*
X136492571Y-136681657D01*
X136492569Y-136681656D01*
X136279637Y-136608556D01*
X136057569Y-136571500D01*
X135832431Y-136571500D01*
X135610362Y-136608556D01*
X135397430Y-136681656D01*
X135397419Y-136681661D01*
X135199427Y-136788808D01*
X135199422Y-136788812D01*
X135021761Y-136927092D01*
X135021756Y-136927097D01*
X134869284Y-137092723D01*
X134869276Y-137092734D01*
X134778808Y-137231206D01*
X134725662Y-137276562D01*
X134656431Y-137285986D01*
X134593095Y-137256484D01*
X134571192Y-137231206D01*
X134480723Y-137092734D01*
X134480715Y-137092723D01*
X134328243Y-136927097D01*
X134328238Y-136927092D01*
X134150577Y-136788812D01*
X134150572Y-136788808D01*
X133952580Y-136681661D01*
X133952577Y-136681659D01*
X133952574Y-136681658D01*
X133952571Y-136681657D01*
X133952569Y-136681656D01*
X133739637Y-136608556D01*
X133517569Y-136571500D01*
X133292431Y-136571500D01*
X133070362Y-136608556D01*
X132857430Y-136681656D01*
X132857419Y-136681661D01*
X132659427Y-136788808D01*
X132659422Y-136788812D01*
X132481761Y-136927092D01*
X132412092Y-137002773D01*
X132352205Y-137038763D01*
X132282367Y-137036662D01*
X132224751Y-136997137D01*
X132204681Y-136962122D01*
X132158354Y-136837913D01*
X132158350Y-136837906D01*
X132072190Y-136722812D01*
X132072187Y-136722809D01*
X131957093Y-136636649D01*
X131957086Y-136636645D01*
X131822379Y-136586403D01*
X131822372Y-136586401D01*
X131762844Y-136580000D01*
X131115000Y-136580000D01*
X131115000Y-137483505D01*
X131010161Y-137435627D01*
X130901473Y-137420000D01*
X130828527Y-137420000D01*
X130719839Y-137435627D01*
X130615000Y-137483505D01*
X130615000Y-136580000D01*
X129967155Y-136580000D01*
X129907627Y-136586401D01*
X129907620Y-136586403D01*
X129772913Y-136636645D01*
X129772906Y-136636649D01*
X129657812Y-136722809D01*
X129657809Y-136722812D01*
X129571649Y-136837906D01*
X129571646Y-136837911D01*
X129525318Y-136962123D01*
X129483446Y-137018056D01*
X129417982Y-137042473D01*
X129349709Y-137027621D01*
X129317910Y-137002775D01*
X129248240Y-136927094D01*
X129070576Y-136788811D01*
X129070575Y-136788810D01*
X129070572Y-136788808D01*
X128872580Y-136681661D01*
X128872577Y-136681659D01*
X128872574Y-136681658D01*
X128872571Y-136681657D01*
X128872569Y-136681656D01*
X128659637Y-136608556D01*
X128437569Y-136571500D01*
X128212431Y-136571500D01*
X127990362Y-136608556D01*
X127777430Y-136681656D01*
X127777419Y-136681661D01*
X127579427Y-136788808D01*
X127579422Y-136788812D01*
X127401761Y-136927092D01*
X127401756Y-136927097D01*
X127249284Y-137092723D01*
X127249276Y-137092734D01*
X127158808Y-137231206D01*
X127105662Y-137276562D01*
X127036431Y-137285986D01*
X126973095Y-137256484D01*
X126951192Y-137231206D01*
X126860723Y-137092734D01*
X126860715Y-137092723D01*
X126708243Y-136927097D01*
X126708238Y-136927092D01*
X126530577Y-136788812D01*
X126530572Y-136788808D01*
X126332580Y-136681661D01*
X126332577Y-136681659D01*
X126332574Y-136681658D01*
X126332571Y-136681657D01*
X126332569Y-136681656D01*
X126119637Y-136608556D01*
X125897569Y-136571500D01*
X125672431Y-136571500D01*
X125450362Y-136608556D01*
X125237430Y-136681656D01*
X125237419Y-136681661D01*
X125039427Y-136788808D01*
X125039422Y-136788812D01*
X124861761Y-136927092D01*
X124861756Y-136927097D01*
X124709284Y-137092723D01*
X124709276Y-137092734D01*
X124618808Y-137231206D01*
X124565662Y-137276562D01*
X124496431Y-137285986D01*
X124433095Y-137256484D01*
X124411192Y-137231206D01*
X124320723Y-137092734D01*
X124320715Y-137092723D01*
X124168243Y-136927097D01*
X124168238Y-136927092D01*
X123990577Y-136788812D01*
X123990572Y-136788808D01*
X123792580Y-136681661D01*
X123792577Y-136681659D01*
X123792574Y-136681658D01*
X123792571Y-136681657D01*
X123792569Y-136681656D01*
X123579637Y-136608556D01*
X123357569Y-136571500D01*
X123132431Y-136571500D01*
X122910362Y-136608556D01*
X122697430Y-136681656D01*
X122697419Y-136681661D01*
X122499427Y-136788808D01*
X122499422Y-136788812D01*
X122321761Y-136927092D01*
X122321756Y-136927097D01*
X122169284Y-137092723D01*
X122169276Y-137092734D01*
X122078808Y-137231206D01*
X122025662Y-137276562D01*
X121956431Y-137285986D01*
X121893095Y-137256484D01*
X121871192Y-137231206D01*
X121780723Y-137092734D01*
X121780715Y-137092723D01*
X121628243Y-136927097D01*
X121628238Y-136927092D01*
X121450577Y-136788812D01*
X121450572Y-136788808D01*
X121252580Y-136681661D01*
X121252577Y-136681659D01*
X121252574Y-136681658D01*
X121252571Y-136681657D01*
X121252569Y-136681656D01*
X121039637Y-136608556D01*
X120817569Y-136571500D01*
X120592431Y-136571500D01*
X120370362Y-136608556D01*
X120157430Y-136681656D01*
X120157419Y-136681661D01*
X119959427Y-136788808D01*
X119959422Y-136788812D01*
X119781761Y-136927092D01*
X119712092Y-137002773D01*
X119652205Y-137038763D01*
X119582367Y-137036662D01*
X119524751Y-136997137D01*
X119504681Y-136962122D01*
X119458354Y-136837913D01*
X119458350Y-136837906D01*
X119372190Y-136722812D01*
X119372187Y-136722809D01*
X119257093Y-136636649D01*
X119257086Y-136636645D01*
X119122379Y-136586403D01*
X119122372Y-136586401D01*
X119062844Y-136580000D01*
X118415000Y-136580000D01*
X118415000Y-137483505D01*
X118310161Y-137435627D01*
X118201473Y-137420000D01*
X118128527Y-137420000D01*
X118019839Y-137435627D01*
X117915000Y-137483505D01*
X117915000Y-136580000D01*
X117267155Y-136580000D01*
X117207627Y-136586401D01*
X117207620Y-136586403D01*
X117072913Y-136636645D01*
X117072906Y-136636649D01*
X116957812Y-136722809D01*
X116957809Y-136722812D01*
X116871649Y-136837906D01*
X116871646Y-136837911D01*
X116825318Y-136962123D01*
X116783446Y-137018056D01*
X116717982Y-137042473D01*
X116649709Y-137027621D01*
X116617910Y-137002775D01*
X116548240Y-136927094D01*
X116370576Y-136788811D01*
X116370575Y-136788810D01*
X116370572Y-136788808D01*
X116172580Y-136681661D01*
X116172577Y-136681659D01*
X116172574Y-136681658D01*
X116172571Y-136681657D01*
X116172569Y-136681656D01*
X115959637Y-136608556D01*
X115737569Y-136571500D01*
X115512431Y-136571500D01*
X115290362Y-136608556D01*
X115077430Y-136681656D01*
X115077419Y-136681661D01*
X114879427Y-136788808D01*
X114879422Y-136788812D01*
X114701761Y-136927092D01*
X114701756Y-136927097D01*
X114549284Y-137092723D01*
X114549276Y-137092734D01*
X114458808Y-137231206D01*
X114405662Y-137276562D01*
X114336431Y-137285986D01*
X114273095Y-137256484D01*
X114251192Y-137231206D01*
X114160723Y-137092734D01*
X114160715Y-137092723D01*
X114008243Y-136927097D01*
X114008238Y-136927092D01*
X113830577Y-136788812D01*
X113830572Y-136788808D01*
X113632580Y-136681661D01*
X113632577Y-136681659D01*
X113632574Y-136681658D01*
X113632571Y-136681657D01*
X113632569Y-136681656D01*
X113419637Y-136608556D01*
X113197569Y-136571500D01*
X112972431Y-136571500D01*
X112750362Y-136608556D01*
X112537430Y-136681656D01*
X112537419Y-136681661D01*
X112339427Y-136788808D01*
X112339422Y-136788812D01*
X112161761Y-136927092D01*
X112161756Y-136927097D01*
X112009284Y-137092723D01*
X112009276Y-137092734D01*
X111918808Y-137231206D01*
X111865662Y-137276562D01*
X111796431Y-137285986D01*
X111733095Y-137256484D01*
X111711192Y-137231206D01*
X111620723Y-137092734D01*
X111620715Y-137092723D01*
X111468243Y-136927097D01*
X111468238Y-136927092D01*
X111290577Y-136788812D01*
X111290572Y-136788808D01*
X111092580Y-136681661D01*
X111092577Y-136681659D01*
X111092574Y-136681658D01*
X111092571Y-136681657D01*
X111092569Y-136681656D01*
X110879637Y-136608556D01*
X110657569Y-136571500D01*
X110432431Y-136571500D01*
X110210362Y-136608556D01*
X109997430Y-136681656D01*
X109997419Y-136681661D01*
X109799427Y-136788808D01*
X109799422Y-136788812D01*
X109621761Y-136927092D01*
X109621756Y-136927097D01*
X109469284Y-137092723D01*
X109469276Y-137092734D01*
X109378808Y-137231206D01*
X109325662Y-137276562D01*
X109256431Y-137285986D01*
X109193095Y-137256484D01*
X109171192Y-137231206D01*
X109080723Y-137092734D01*
X109080715Y-137092723D01*
X108928243Y-136927097D01*
X108928238Y-136927092D01*
X108750577Y-136788812D01*
X108750572Y-136788808D01*
X108552580Y-136681661D01*
X108552577Y-136681659D01*
X108552574Y-136681658D01*
X108552571Y-136681657D01*
X108552569Y-136681656D01*
X108339637Y-136608556D01*
X108117569Y-136571500D01*
X107892431Y-136571500D01*
X107670362Y-136608556D01*
X107457430Y-136681656D01*
X107457419Y-136681661D01*
X107259427Y-136788808D01*
X107259422Y-136788812D01*
X107081761Y-136927092D01*
X107012092Y-137002773D01*
X106952205Y-137038763D01*
X106882367Y-137036662D01*
X106824751Y-136997137D01*
X106804681Y-136962122D01*
X106758354Y-136837913D01*
X106758350Y-136837906D01*
X106672190Y-136722812D01*
X106672187Y-136722809D01*
X106557093Y-136636649D01*
X106557086Y-136636645D01*
X106422379Y-136586403D01*
X106422372Y-136586401D01*
X106362844Y-136580000D01*
X105715000Y-136580000D01*
X105715000Y-137483505D01*
X105610161Y-137435627D01*
X105501473Y-137420000D01*
X105428527Y-137420000D01*
X105319839Y-137435627D01*
X105215000Y-137483505D01*
X105215000Y-136580000D01*
X104567155Y-136580000D01*
X104507627Y-136586401D01*
X104507620Y-136586403D01*
X104372913Y-136636645D01*
X104372906Y-136636649D01*
X104257812Y-136722809D01*
X104257809Y-136722812D01*
X104171649Y-136837906D01*
X104171646Y-136837911D01*
X104125318Y-136962123D01*
X104083446Y-137018056D01*
X104017982Y-137042473D01*
X103949709Y-137027621D01*
X103917910Y-137002775D01*
X103848240Y-136927094D01*
X103670576Y-136788811D01*
X103670575Y-136788810D01*
X103670572Y-136788808D01*
X103472580Y-136681661D01*
X103472577Y-136681659D01*
X103472574Y-136681658D01*
X103472571Y-136681657D01*
X103472569Y-136681656D01*
X103259637Y-136608556D01*
X103037569Y-136571500D01*
X102812431Y-136571500D01*
X102590362Y-136608556D01*
X102377430Y-136681656D01*
X102377419Y-136681661D01*
X102179427Y-136788808D01*
X102179422Y-136788812D01*
X102001761Y-136927092D01*
X102001756Y-136927097D01*
X101849284Y-137092723D01*
X101849276Y-137092734D01*
X101758808Y-137231206D01*
X101705662Y-137276562D01*
X101636431Y-137285986D01*
X101573095Y-137256484D01*
X101551192Y-137231206D01*
X101460723Y-137092734D01*
X101460715Y-137092723D01*
X101308243Y-136927097D01*
X101308238Y-136927092D01*
X101130577Y-136788812D01*
X101130572Y-136788808D01*
X100932580Y-136681661D01*
X100932577Y-136681659D01*
X100932574Y-136681658D01*
X100932571Y-136681657D01*
X100932569Y-136681656D01*
X100719637Y-136608556D01*
X100497569Y-136571500D01*
X100272431Y-136571500D01*
X100050362Y-136608556D01*
X99837430Y-136681656D01*
X99837419Y-136681661D01*
X99639427Y-136788808D01*
X99639422Y-136788812D01*
X99461761Y-136927092D01*
X99461756Y-136927097D01*
X99309284Y-137092723D01*
X99309276Y-137092734D01*
X99186140Y-137281207D01*
X99095703Y-137487385D01*
X99040436Y-137705628D01*
X99040434Y-137705640D01*
X99021844Y-137929994D01*
X99021844Y-137930005D01*
X99040434Y-138154359D01*
X99040436Y-138154371D01*
X99095703Y-138372614D01*
X99186140Y-138578792D01*
X99309276Y-138767265D01*
X99309284Y-138767276D01*
X99397277Y-138862860D01*
X99461760Y-138932906D01*
X99639424Y-139071189D01*
X99639425Y-139071189D01*
X99639427Y-139071191D01*
X99736022Y-139123465D01*
X99837426Y-139178342D01*
X100050365Y-139251444D01*
X100272431Y-139288500D01*
X100497569Y-139288500D01*
X100719635Y-139251444D01*
X100932574Y-139178342D01*
X101130576Y-139071189D01*
X101308240Y-138932906D01*
X101460722Y-138767268D01*
X101551193Y-138628790D01*
X101604338Y-138583437D01*
X101673569Y-138574013D01*
X101736905Y-138603515D01*
X101758804Y-138628787D01*
X101849278Y-138767268D01*
X101849283Y-138767273D01*
X101849284Y-138767276D01*
X101937277Y-138862860D01*
X102001760Y-138932906D01*
X102179424Y-139071189D01*
X102179425Y-139071189D01*
X102179427Y-139071191D01*
X102276022Y-139123465D01*
X102377426Y-139178342D01*
X102590365Y-139251444D01*
X102812431Y-139288500D01*
X103037569Y-139288500D01*
X103259635Y-139251444D01*
X103472574Y-139178342D01*
X103670576Y-139071189D01*
X103848240Y-138932906D01*
X103917908Y-138857226D01*
X103977793Y-138821237D01*
X104047631Y-138823337D01*
X104105247Y-138862860D01*
X104125318Y-138897877D01*
X104171645Y-139022086D01*
X104171649Y-139022093D01*
X104257809Y-139137187D01*
X104257812Y-139137190D01*
X104372906Y-139223350D01*
X104372913Y-139223354D01*
X104507620Y-139273596D01*
X104507627Y-139273598D01*
X104567155Y-139279999D01*
X104567172Y-139280000D01*
X105215000Y-139280000D01*
X105215000Y-138376494D01*
X105319839Y-138424373D01*
X105428527Y-138440000D01*
X105501473Y-138440000D01*
X105610161Y-138424373D01*
X105715000Y-138376494D01*
X105715000Y-139280000D01*
X106362828Y-139280000D01*
X106362844Y-139279999D01*
X106422372Y-139273598D01*
X106422379Y-139273596D01*
X106557086Y-139223354D01*
X106557093Y-139223350D01*
X106672187Y-139137190D01*
X106672190Y-139137187D01*
X106758350Y-139022093D01*
X106758354Y-139022086D01*
X106804681Y-138897877D01*
X106846552Y-138841943D01*
X106912016Y-138817526D01*
X106980289Y-138832377D01*
X107012089Y-138857223D01*
X107081760Y-138932906D01*
X107259424Y-139071189D01*
X107259425Y-139071189D01*
X107259427Y-139071191D01*
X107356022Y-139123465D01*
X107457426Y-139178342D01*
X107670365Y-139251444D01*
X107892431Y-139288500D01*
X108117569Y-139288500D01*
X108339635Y-139251444D01*
X108552574Y-139178342D01*
X108750576Y-139071189D01*
X108928240Y-138932906D01*
X109080722Y-138767268D01*
X109171193Y-138628790D01*
X109224338Y-138583437D01*
X109293569Y-138574013D01*
X109356905Y-138603515D01*
X109378804Y-138628787D01*
X109469278Y-138767268D01*
X109469283Y-138767273D01*
X109469284Y-138767276D01*
X109557277Y-138862860D01*
X109621760Y-138932906D01*
X109799424Y-139071189D01*
X109799425Y-139071189D01*
X109799427Y-139071191D01*
X109896022Y-139123465D01*
X109997426Y-139178342D01*
X110210365Y-139251444D01*
X110432431Y-139288500D01*
X110657569Y-139288500D01*
X110879635Y-139251444D01*
X111092574Y-139178342D01*
X111290576Y-139071189D01*
X111468240Y-138932906D01*
X111620722Y-138767268D01*
X111711193Y-138628790D01*
X111764338Y-138583437D01*
X111833569Y-138574013D01*
X111896905Y-138603515D01*
X111918804Y-138628787D01*
X112009278Y-138767268D01*
X112009283Y-138767273D01*
X112009284Y-138767276D01*
X112097277Y-138862860D01*
X112161760Y-138932906D01*
X112339424Y-139071189D01*
X112339425Y-139071189D01*
X112339427Y-139071191D01*
X112436022Y-139123465D01*
X112537426Y-139178342D01*
X112750365Y-139251444D01*
X112972431Y-139288500D01*
X113197569Y-139288500D01*
X113419635Y-139251444D01*
X113632574Y-139178342D01*
X113830576Y-139071189D01*
X114008240Y-138932906D01*
X114160722Y-138767268D01*
X114251193Y-138628790D01*
X114304338Y-138583437D01*
X114373569Y-138574013D01*
X114436905Y-138603515D01*
X114458804Y-138628787D01*
X114549278Y-138767268D01*
X114549283Y-138767273D01*
X114549284Y-138767276D01*
X114637277Y-138862860D01*
X114701760Y-138932906D01*
X114879424Y-139071189D01*
X114879425Y-139071189D01*
X114879427Y-139071191D01*
X114976022Y-139123465D01*
X115077426Y-139178342D01*
X115290365Y-139251444D01*
X115512431Y-139288500D01*
X115737569Y-139288500D01*
X115959635Y-139251444D01*
X116172574Y-139178342D01*
X116370576Y-139071189D01*
X116548240Y-138932906D01*
X116617908Y-138857226D01*
X116677793Y-138821237D01*
X116747631Y-138823337D01*
X116805247Y-138862860D01*
X116825318Y-138897877D01*
X116871645Y-139022086D01*
X116871649Y-139022093D01*
X116957809Y-139137187D01*
X116957812Y-139137190D01*
X117072906Y-139223350D01*
X117072913Y-139223354D01*
X117207620Y-139273596D01*
X117207627Y-139273598D01*
X117267155Y-139279999D01*
X117267172Y-139280000D01*
X117915000Y-139280000D01*
X117915000Y-138376494D01*
X118019839Y-138424373D01*
X118128527Y-138440000D01*
X118201473Y-138440000D01*
X118310161Y-138424373D01*
X118415000Y-138376494D01*
X118415000Y-139280000D01*
X119062828Y-139280000D01*
X119062844Y-139279999D01*
X119122372Y-139273598D01*
X119122379Y-139273596D01*
X119257086Y-139223354D01*
X119257093Y-139223350D01*
X119372187Y-139137190D01*
X119372190Y-139137187D01*
X119458350Y-139022093D01*
X119458354Y-139022086D01*
X119504681Y-138897877D01*
X119546552Y-138841943D01*
X119612016Y-138817526D01*
X119680289Y-138832377D01*
X119712089Y-138857223D01*
X119781760Y-138932906D01*
X119959424Y-139071189D01*
X119959425Y-139071189D01*
X119959427Y-139071191D01*
X120056022Y-139123465D01*
X120157426Y-139178342D01*
X120370365Y-139251444D01*
X120592431Y-139288500D01*
X120817569Y-139288500D01*
X121039635Y-139251444D01*
X121252574Y-139178342D01*
X121450576Y-139071189D01*
X121628240Y-138932906D01*
X121780722Y-138767268D01*
X121871193Y-138628790D01*
X121924338Y-138583437D01*
X121993569Y-138574013D01*
X122056905Y-138603515D01*
X122078804Y-138628787D01*
X122169278Y-138767268D01*
X122169283Y-138767273D01*
X122169284Y-138767276D01*
X122257277Y-138862860D01*
X122321760Y-138932906D01*
X122499424Y-139071189D01*
X122499425Y-139071189D01*
X122499427Y-139071191D01*
X122596022Y-139123465D01*
X122697426Y-139178342D01*
X122910365Y-139251444D01*
X123132431Y-139288500D01*
X123357569Y-139288500D01*
X123579635Y-139251444D01*
X123792574Y-139178342D01*
X123990576Y-139071189D01*
X124168240Y-138932906D01*
X124320722Y-138767268D01*
X124411193Y-138628790D01*
X124464338Y-138583437D01*
X124533569Y-138574013D01*
X124596905Y-138603515D01*
X124618804Y-138628787D01*
X124709278Y-138767268D01*
X124709283Y-138767273D01*
X124709284Y-138767276D01*
X124797277Y-138862860D01*
X124861760Y-138932906D01*
X125039424Y-139071189D01*
X125039425Y-139071189D01*
X125039427Y-139071191D01*
X125136022Y-139123465D01*
X125237426Y-139178342D01*
X125450365Y-139251444D01*
X125672431Y-139288500D01*
X125897569Y-139288500D01*
X126119635Y-139251444D01*
X126332574Y-139178342D01*
X126530576Y-139071189D01*
X126708240Y-138932906D01*
X126860722Y-138767268D01*
X126951193Y-138628790D01*
X127004338Y-138583437D01*
X127073569Y-138574013D01*
X127136905Y-138603515D01*
X127158804Y-138628787D01*
X127249278Y-138767268D01*
X127249283Y-138767273D01*
X127249284Y-138767276D01*
X127337277Y-138862860D01*
X127401760Y-138932906D01*
X127579424Y-139071189D01*
X127579425Y-139071189D01*
X127579427Y-139071191D01*
X127676022Y-139123465D01*
X127777426Y-139178342D01*
X127990365Y-139251444D01*
X128212431Y-139288500D01*
X128437569Y-139288500D01*
X128659635Y-139251444D01*
X128872574Y-139178342D01*
X129070576Y-139071189D01*
X129248240Y-138932906D01*
X129317908Y-138857226D01*
X129377793Y-138821237D01*
X129447631Y-138823337D01*
X129505247Y-138862860D01*
X129525318Y-138897877D01*
X129571645Y-139022086D01*
X129571649Y-139022093D01*
X129657809Y-139137187D01*
X129657812Y-139137190D01*
X129772906Y-139223350D01*
X129772913Y-139223354D01*
X129907620Y-139273596D01*
X129907627Y-139273598D01*
X129967155Y-139279999D01*
X129967172Y-139280000D01*
X130682956Y-139280000D01*
X130749995Y-139299685D01*
X130795750Y-139352489D01*
X130805694Y-139421647D01*
X130776669Y-139485203D01*
X130770637Y-139491681D01*
X121565222Y-148697095D01*
X121551595Y-148708873D01*
X121532041Y-148723431D01*
X121499813Y-148761838D01*
X121492521Y-148769797D01*
X121488520Y-148773798D01*
X121469083Y-148798379D01*
X121466810Y-148801169D01*
X121418067Y-148859260D01*
X121414101Y-148865291D01*
X121414063Y-148865266D01*
X121409882Y-148871828D01*
X121409921Y-148871852D01*
X121406135Y-148877988D01*
X121387764Y-148917384D01*
X121374067Y-148946755D01*
X121372512Y-148949968D01*
X121338491Y-149017710D01*
X121336023Y-149024493D01*
X121335978Y-149024476D01*
X121333422Y-149031832D01*
X121333466Y-149031847D01*
X121331196Y-149038694D01*
X121315858Y-149112973D01*
X121315078Y-149116489D01*
X121297599Y-149190244D01*
X121296761Y-149197419D01*
X121296713Y-149197413D01*
X121295923Y-149205144D01*
X121295970Y-149205149D01*
X121295340Y-149212338D01*
X121297548Y-149288190D01*
X121297600Y-149291797D01*
X121297600Y-154303442D01*
X121277915Y-154370481D01*
X121225111Y-154416236D01*
X121155953Y-154426180D01*
X121133338Y-154420723D01*
X121039639Y-154388556D01*
X120817569Y-154351500D01*
X120592431Y-154351500D01*
X120370362Y-154388556D01*
X120157430Y-154461656D01*
X120157419Y-154461661D01*
X119959427Y-154568808D01*
X119959422Y-154568812D01*
X119781761Y-154707092D01*
X119712092Y-154782773D01*
X119652205Y-154818763D01*
X119582367Y-154816662D01*
X119524751Y-154777137D01*
X119504681Y-154742122D01*
X119458354Y-154617913D01*
X119458350Y-154617906D01*
X119372190Y-154502812D01*
X119372187Y-154502809D01*
X119257093Y-154416649D01*
X119257086Y-154416645D01*
X119122379Y-154366403D01*
X119122372Y-154366401D01*
X119062844Y-154360000D01*
X118415000Y-154360000D01*
X118415000Y-155263505D01*
X118310161Y-155215627D01*
X118201473Y-155200000D01*
X118128527Y-155200000D01*
X118019839Y-155215627D01*
X117915000Y-155263505D01*
X117915000Y-154360000D01*
X117267155Y-154360000D01*
X117207627Y-154366401D01*
X117207620Y-154366403D01*
X117072913Y-154416645D01*
X117072906Y-154416649D01*
X116957812Y-154502809D01*
X116957809Y-154502812D01*
X116871649Y-154617906D01*
X116871646Y-154617911D01*
X116825318Y-154742123D01*
X116783446Y-154798056D01*
X116717982Y-154822473D01*
X116649709Y-154807621D01*
X116617910Y-154782775D01*
X116548240Y-154707094D01*
X116370576Y-154568811D01*
X116370575Y-154568810D01*
X116370572Y-154568808D01*
X116172580Y-154461661D01*
X116172577Y-154461659D01*
X116172574Y-154461658D01*
X116172571Y-154461657D01*
X116172569Y-154461656D01*
X115959637Y-154388556D01*
X115737569Y-154351500D01*
X115512431Y-154351500D01*
X115290362Y-154388556D01*
X115077430Y-154461656D01*
X115077419Y-154461661D01*
X114879427Y-154568808D01*
X114879422Y-154568812D01*
X114701761Y-154707092D01*
X114701756Y-154707097D01*
X114549284Y-154872723D01*
X114549276Y-154872734D01*
X114458808Y-155011206D01*
X114405662Y-155056562D01*
X114336431Y-155065986D01*
X114273095Y-155036484D01*
X114251192Y-155011206D01*
X114169208Y-154885721D01*
X114160722Y-154872732D01*
X114160719Y-154872729D01*
X114160715Y-154872723D01*
X114008243Y-154707097D01*
X114008238Y-154707092D01*
X113830577Y-154568812D01*
X113830572Y-154568808D01*
X113632580Y-154461661D01*
X113632577Y-154461659D01*
X113632574Y-154461658D01*
X113632571Y-154461657D01*
X113632569Y-154461656D01*
X113419637Y-154388556D01*
X113197569Y-154351500D01*
X112972431Y-154351500D01*
X112750362Y-154388556D01*
X112537430Y-154461656D01*
X112537419Y-154461661D01*
X112339427Y-154568808D01*
X112339422Y-154568812D01*
X112161761Y-154707092D01*
X112161756Y-154707097D01*
X112009284Y-154872723D01*
X112009276Y-154872734D01*
X111918808Y-155011206D01*
X111865662Y-155056562D01*
X111796431Y-155065986D01*
X111733095Y-155036484D01*
X111711192Y-155011206D01*
X111629208Y-154885721D01*
X111620722Y-154872732D01*
X111620719Y-154872729D01*
X111620715Y-154872723D01*
X111468243Y-154707097D01*
X111468238Y-154707092D01*
X111290577Y-154568812D01*
X111290572Y-154568808D01*
X111092580Y-154461661D01*
X111092577Y-154461659D01*
X111092574Y-154461658D01*
X111092571Y-154461657D01*
X111092569Y-154461656D01*
X110879637Y-154388556D01*
X110657569Y-154351500D01*
X110432431Y-154351500D01*
X110210362Y-154388556D01*
X109997430Y-154461656D01*
X109997419Y-154461661D01*
X109799427Y-154568808D01*
X109799422Y-154568812D01*
X109621761Y-154707092D01*
X109621756Y-154707097D01*
X109469284Y-154872723D01*
X109469276Y-154872734D01*
X109378808Y-155011206D01*
X109325662Y-155056562D01*
X109256431Y-155065986D01*
X109193095Y-155036484D01*
X109171192Y-155011206D01*
X109089208Y-154885721D01*
X109080722Y-154872732D01*
X109080719Y-154872729D01*
X109080715Y-154872723D01*
X108928243Y-154707097D01*
X108928238Y-154707092D01*
X108750577Y-154568812D01*
X108750572Y-154568808D01*
X108552580Y-154461661D01*
X108552577Y-154461659D01*
X108552574Y-154461658D01*
X108552571Y-154461657D01*
X108552569Y-154461656D01*
X108339637Y-154388556D01*
X108117569Y-154351500D01*
X107892431Y-154351500D01*
X107670362Y-154388556D01*
X107457430Y-154461656D01*
X107457419Y-154461661D01*
X107259427Y-154568808D01*
X107259422Y-154568812D01*
X107081761Y-154707092D01*
X107012092Y-154782773D01*
X106952205Y-154818763D01*
X106882367Y-154816662D01*
X106824751Y-154777137D01*
X106804681Y-154742122D01*
X106758354Y-154617913D01*
X106758350Y-154617906D01*
X106672190Y-154502812D01*
X106672187Y-154502809D01*
X106557093Y-154416649D01*
X106557086Y-154416645D01*
X106422379Y-154366403D01*
X106422372Y-154366401D01*
X106362844Y-154360000D01*
X105715000Y-154360000D01*
X105715000Y-155263505D01*
X105610161Y-155215627D01*
X105501473Y-155200000D01*
X105428527Y-155200000D01*
X105319839Y-155215627D01*
X105215000Y-155263505D01*
X105215000Y-154360000D01*
X104567155Y-154360000D01*
X104507627Y-154366401D01*
X104507620Y-154366403D01*
X104372913Y-154416645D01*
X104372906Y-154416649D01*
X104257812Y-154502809D01*
X104257809Y-154502812D01*
X104171649Y-154617906D01*
X104171646Y-154617911D01*
X104125318Y-154742123D01*
X104083446Y-154798056D01*
X104017982Y-154822473D01*
X103949709Y-154807621D01*
X103917910Y-154782775D01*
X103848240Y-154707094D01*
X103670576Y-154568811D01*
X103670575Y-154568810D01*
X103670572Y-154568808D01*
X103472580Y-154461661D01*
X103472577Y-154461659D01*
X103472574Y-154461658D01*
X103472571Y-154461657D01*
X103472569Y-154461656D01*
X103259637Y-154388556D01*
X103037569Y-154351500D01*
X102812431Y-154351500D01*
X102590362Y-154388556D01*
X102377430Y-154461656D01*
X102377419Y-154461661D01*
X102179427Y-154568808D01*
X102179422Y-154568812D01*
X102001761Y-154707092D01*
X102001756Y-154707097D01*
X101849284Y-154872723D01*
X101849276Y-154872734D01*
X101758808Y-155011206D01*
X101705662Y-155056562D01*
X101636431Y-155065986D01*
X101573095Y-155036484D01*
X101551192Y-155011206D01*
X101469208Y-154885721D01*
X101460722Y-154872732D01*
X101460719Y-154872729D01*
X101460715Y-154872723D01*
X101308243Y-154707097D01*
X101308238Y-154707092D01*
X101130577Y-154568812D01*
X101130572Y-154568808D01*
X100932580Y-154461661D01*
X100932577Y-154461659D01*
X100932574Y-154461658D01*
X100932571Y-154461657D01*
X100932569Y-154461656D01*
X100719637Y-154388556D01*
X100497569Y-154351500D01*
X100272431Y-154351500D01*
X100050362Y-154388556D01*
X99837430Y-154461656D01*
X99837419Y-154461661D01*
X99639427Y-154568808D01*
X99639422Y-154568812D01*
X99461761Y-154707092D01*
X99461756Y-154707097D01*
X99309284Y-154872723D01*
X99309276Y-154872734D01*
X99186140Y-155061207D01*
X99095703Y-155267385D01*
X99040436Y-155485628D01*
X99040434Y-155485640D01*
X99021844Y-155709994D01*
X99021844Y-155710005D01*
X91970500Y-155710005D01*
X91970500Y-149360005D01*
X99251844Y-149360005D01*
X99270434Y-149584359D01*
X99270436Y-149584371D01*
X99325703Y-149802614D01*
X99416140Y-150008792D01*
X99539276Y-150197265D01*
X99539284Y-150197276D01*
X99691756Y-150362902D01*
X99691761Y-150362907D01*
X99730631Y-150393161D01*
X99869424Y-150501189D01*
X99869425Y-150501189D01*
X99869427Y-150501191D01*
X99920243Y-150528691D01*
X100067426Y-150608342D01*
X100280365Y-150681444D01*
X100502431Y-150718500D01*
X100727569Y-150718500D01*
X100949635Y-150681444D01*
X101162574Y-150608342D01*
X101360576Y-150501189D01*
X101538240Y-150362906D01*
X101657505Y-150233351D01*
X101690715Y-150197276D01*
X101690716Y-150197274D01*
X101690722Y-150197268D01*
X101813860Y-150008791D01*
X101904296Y-149802616D01*
X101959564Y-149584368D01*
X101960141Y-149577403D01*
X101978156Y-149360005D01*
X101978156Y-149359994D01*
X101959565Y-149135640D01*
X101959563Y-149135628D01*
X101950413Y-149099497D01*
X101904296Y-148917384D01*
X101813860Y-148711209D01*
X101804468Y-148696834D01*
X101726323Y-148577224D01*
X101690722Y-148522732D01*
X101539291Y-148358236D01*
X101508370Y-148295584D01*
X101516230Y-148226158D01*
X101560376Y-148172002D01*
X101587189Y-148158073D01*
X101707086Y-148113354D01*
X101707093Y-148113350D01*
X101822187Y-148027190D01*
X101822190Y-148027187D01*
X101908350Y-147912093D01*
X101908354Y-147912086D01*
X101958596Y-147777379D01*
X101958598Y-147777372D01*
X101964999Y-147717844D01*
X101965000Y-147717827D01*
X101965000Y-147070000D01*
X101060572Y-147070000D01*
X101083682Y-147034040D01*
X101125000Y-146893327D01*
X101125000Y-146746673D01*
X101083682Y-146605960D01*
X101060572Y-146570000D01*
X101965000Y-146570000D01*
X101965000Y-145922172D01*
X101964999Y-145922155D01*
X101958598Y-145862627D01*
X101958596Y-145862620D01*
X101908354Y-145727913D01*
X101908350Y-145727906D01*
X101822190Y-145612812D01*
X101822187Y-145612809D01*
X101707093Y-145526649D01*
X101707088Y-145526646D01*
X101587188Y-145481926D01*
X101531255Y-145440054D01*
X101506838Y-145374590D01*
X101521690Y-145306317D01*
X101539286Y-145281769D01*
X101690722Y-145117268D01*
X101813860Y-144928791D01*
X101904296Y-144722616D01*
X101959564Y-144504368D01*
X101959565Y-144504359D01*
X101978156Y-144280005D01*
X101978156Y-144279994D01*
X101959565Y-144055640D01*
X101959563Y-144055628D01*
X101936087Y-143962923D01*
X101904296Y-143837384D01*
X101813860Y-143631209D01*
X101800548Y-143610834D01*
X101711891Y-143475134D01*
X101690722Y-143442732D01*
X101690719Y-143442729D01*
X101690715Y-143442723D01*
X101538243Y-143277097D01*
X101538238Y-143277092D01*
X101376732Y-143151386D01*
X101360576Y-143138811D01*
X101360575Y-143138810D01*
X101360572Y-143138808D01*
X101162580Y-143031661D01*
X101162577Y-143031659D01*
X101162574Y-143031658D01*
X101162571Y-143031657D01*
X101162569Y-143031656D01*
X100949637Y-142958556D01*
X100727569Y-142921500D01*
X100502431Y-142921500D01*
X100280362Y-142958556D01*
X100067430Y-143031656D01*
X100067419Y-143031661D01*
X99869427Y-143138808D01*
X99869422Y-143138812D01*
X99691761Y-143277092D01*
X99691756Y-143277097D01*
X99539284Y-143442723D01*
X99539276Y-143442734D01*
X99416140Y-143631207D01*
X99325703Y-143837385D01*
X99270436Y-144055628D01*
X99270434Y-144055640D01*
X99251844Y-144279994D01*
X99251844Y-144280005D01*
X99270434Y-144504359D01*
X99270436Y-144504371D01*
X99325703Y-144722614D01*
X99416140Y-144928792D01*
X99539276Y-145117265D01*
X99539278Y-145117268D01*
X99690707Y-145281762D01*
X99721629Y-145344415D01*
X99713769Y-145413841D01*
X99669622Y-145467997D01*
X99642811Y-145481926D01*
X99522912Y-145526646D01*
X99522906Y-145526649D01*
X99407812Y-145612809D01*
X99407809Y-145612812D01*
X99321649Y-145727906D01*
X99321645Y-145727913D01*
X99271403Y-145862620D01*
X99271401Y-145862627D01*
X99265000Y-145922155D01*
X99265000Y-146570000D01*
X100169428Y-146570000D01*
X100146318Y-146605960D01*
X100105000Y-146746673D01*
X100105000Y-146893327D01*
X100146318Y-147034040D01*
X100169428Y-147070000D01*
X99265000Y-147070000D01*
X99265000Y-147717844D01*
X99271401Y-147777372D01*
X99271403Y-147777379D01*
X99321645Y-147912086D01*
X99321649Y-147912093D01*
X99407809Y-148027187D01*
X99407812Y-148027190D01*
X99522906Y-148113350D01*
X99522913Y-148113354D01*
X99642810Y-148158073D01*
X99698744Y-148199944D01*
X99723161Y-148265409D01*
X99708309Y-148333682D01*
X99690706Y-148358238D01*
X99539284Y-148522723D01*
X99539276Y-148522734D01*
X99416140Y-148711207D01*
X99325703Y-148917385D01*
X99270436Y-149135628D01*
X99270434Y-149135640D01*
X99251844Y-149359994D01*
X99251844Y-149360005D01*
X91970500Y-149360005D01*
X91970500Y-139159188D01*
X91989506Y-139093216D01*
X92002042Y-139073267D01*
X92056634Y-138917252D01*
X92063397Y-138857227D01*
X92075141Y-138753003D01*
X92075141Y-138752996D01*
X92056635Y-138588753D01*
X92056634Y-138588751D01*
X92056634Y-138588748D01*
X92002042Y-138432733D01*
X91914102Y-138292777D01*
X91797223Y-138175898D01*
X91762944Y-138154359D01*
X91657268Y-138087958D01*
X91501246Y-138033364D01*
X91337004Y-138014859D01*
X91336996Y-138014859D01*
X91172753Y-138033364D01*
X91016731Y-138087958D01*
X90876776Y-138175898D01*
X90759898Y-138292776D01*
X90671958Y-138432731D01*
X90617364Y-138588753D01*
X90598859Y-138752996D01*
X90598859Y-138753003D01*
X90617365Y-138917251D01*
X90617366Y-138917256D01*
X90622765Y-138932686D01*
X90626326Y-139002465D01*
X90591595Y-139063091D01*
X90546681Y-139090678D01*
X90508735Y-139103957D01*
X90508730Y-139103959D01*
X90368776Y-139191898D01*
X90251898Y-139308776D01*
X90163958Y-139448731D01*
X90109364Y-139604753D01*
X90090859Y-139768996D01*
X90090859Y-139769003D01*
X76649322Y-139769003D01*
X76512707Y-139649647D01*
X76512699Y-139649640D01*
X76319553Y-139534240D01*
X76319548Y-139534238D01*
X76108889Y-139455175D01*
X75887506Y-139415000D01*
X75125000Y-139415000D01*
X75125000Y-140215000D01*
X74625000Y-140215000D01*
X74625000Y-139415000D01*
X73918870Y-139415000D01*
X73750903Y-139430116D01*
X73750897Y-139430117D01*
X73534015Y-139489973D01*
X73534002Y-139489978D01*
X73331291Y-139587598D01*
X73331283Y-139587602D01*
X73149258Y-139719851D01*
X73149250Y-139719857D01*
X72993762Y-139882486D01*
X72869808Y-140070266D01*
X72781375Y-140277169D01*
X72781372Y-140277178D01*
X72749915Y-140414999D01*
X72749916Y-140415000D01*
X73599722Y-140415000D01*
X73551375Y-140498740D01*
X73521190Y-140630992D01*
X73531327Y-140766265D01*
X73580887Y-140892541D01*
X73598797Y-140915000D01*
X72747449Y-140915000D01*
X70540084Y-140915000D01*
X69690278Y-140915000D01*
X69738625Y-140831260D01*
X69768810Y-140699008D01*
X69758673Y-140563735D01*
X69709113Y-140437459D01*
X69691203Y-140415000D01*
X70542550Y-140415000D01*
X70542550Y-140414999D01*
X70538584Y-140385721D01*
X70469054Y-140171731D01*
X70362434Y-139973598D01*
X70362432Y-139973595D01*
X70222145Y-139797679D01*
X70052707Y-139649647D01*
X70052699Y-139649640D01*
X69859553Y-139534240D01*
X69859548Y-139534238D01*
X69648889Y-139455175D01*
X69427506Y-139415000D01*
X69165000Y-139415000D01*
X69165000Y-140215000D01*
X68665000Y-140215000D01*
X68665000Y-139415000D01*
X68458870Y-139415000D01*
X68290903Y-139430116D01*
X68290897Y-139430117D01*
X68074015Y-139489973D01*
X68074002Y-139489978D01*
X67871291Y-139587598D01*
X67871283Y-139587602D01*
X67689258Y-139719851D01*
X67689250Y-139719857D01*
X67533762Y-139882486D01*
X67409808Y-140070266D01*
X67321375Y-140277169D01*
X67321372Y-140277178D01*
X67289915Y-140414999D01*
X67289916Y-140415000D01*
X68139722Y-140415000D01*
X68091375Y-140498740D01*
X68061190Y-140630992D01*
X68071327Y-140766265D01*
X68120887Y-140892541D01*
X68138797Y-140915000D01*
X67287449Y-140915000D01*
X64875500Y-140915000D01*
X64875500Y-130865001D01*
X69979390Y-130865001D01*
X69999804Y-131150433D01*
X70060628Y-131430037D01*
X70060630Y-131430043D01*
X70060631Y-131430046D01*
X70151285Y-131673098D01*
X70160635Y-131698166D01*
X70297770Y-131949309D01*
X70297775Y-131949317D01*
X70469254Y-132178387D01*
X70469270Y-132178405D01*
X70671594Y-132380729D01*
X70671612Y-132380745D01*
X70900682Y-132552224D01*
X70900690Y-132552229D01*
X71151833Y-132689364D01*
X71151832Y-132689364D01*
X71151836Y-132689365D01*
X71151839Y-132689367D01*
X71419954Y-132789369D01*
X71419960Y-132789370D01*
X71419962Y-132789371D01*
X71699566Y-132850195D01*
X71699568Y-132850195D01*
X71699572Y-132850196D01*
X71953220Y-132868337D01*
X71984999Y-132870610D01*
X71985000Y-132870610D01*
X71985001Y-132870610D01*
X72013595Y-132868564D01*
X72270428Y-132850196D01*
X72550046Y-132789369D01*
X72818161Y-132689367D01*
X73069315Y-132552226D01*
X73298395Y-132380739D01*
X73500739Y-132178395D01*
X73672226Y-131949315D01*
X73809367Y-131698161D01*
X73909369Y-131430046D01*
X73970196Y-131150428D01*
X73990610Y-130865000D01*
X73970196Y-130579572D01*
X73909369Y-130299954D01*
X73809367Y-130031839D01*
X73741624Y-129907778D01*
X73672229Y-129780690D01*
X73672224Y-129780682D01*
X73500745Y-129551612D01*
X73500729Y-129551594D01*
X73298405Y-129349270D01*
X73298387Y-129349254D01*
X73069317Y-129177775D01*
X73069309Y-129177770D01*
X72818166Y-129040635D01*
X72818167Y-129040635D01*
X72710915Y-129000632D01*
X72550046Y-128940631D01*
X72550043Y-128940630D01*
X72550037Y-128940628D01*
X72270433Y-128879804D01*
X71985001Y-128859390D01*
X71984999Y-128859390D01*
X71699566Y-128879804D01*
X71419962Y-128940628D01*
X71151833Y-129040635D01*
X70900690Y-129177770D01*
X70900682Y-129177775D01*
X70671612Y-129349254D01*
X70671594Y-129349270D01*
X70469270Y-129551594D01*
X70469254Y-129551612D01*
X70297775Y-129780682D01*
X70297770Y-129780690D01*
X70160635Y-130031833D01*
X70060628Y-130299962D01*
X69999804Y-130579566D01*
X69979390Y-130864998D01*
X69979390Y-130865001D01*
X64875500Y-130865001D01*
X64875500Y-125759500D01*
X64895185Y-125692461D01*
X64947989Y-125646706D01*
X64999500Y-125635500D01*
X150240500Y-125635500D01*
X150307539Y-125655185D01*
G37*
G04 #@! TD.AperFunction*
G04 #@! TA.AperFunction,Conductor*
G36*
X129293834Y-184599667D02*
G01*
X129349767Y-184641539D01*
X129374184Y-184707003D01*
X129374500Y-184715849D01*
X129374500Y-188029000D01*
X128883500Y-188029000D01*
X128883500Y-184899332D01*
X128903185Y-184832293D01*
X128942401Y-184793794D01*
X129085387Y-184705600D01*
X129162819Y-184628168D01*
X129224142Y-184594683D01*
X129293834Y-184599667D01*
G37*
G04 #@! TD.AperFunction*
G04 #@! TA.AperFunction,Conductor*
G36*
X112568039Y-187519685D02*
G01*
X112613794Y-187572489D01*
X112625000Y-187624000D01*
X112625000Y-188402000D01*
X112605315Y-188469039D01*
X112552511Y-188514794D01*
X112501000Y-188526000D01*
X110749000Y-188526000D01*
X110681961Y-188506315D01*
X110636206Y-188453511D01*
X110625000Y-188402000D01*
X110625000Y-187624000D01*
X110644685Y-187556961D01*
X110697489Y-187511206D01*
X110749000Y-187500000D01*
X112501000Y-187500000D01*
X112568039Y-187519685D01*
G37*
G04 #@! TD.AperFunction*
M02*
