G04 #@! TF.GenerationSoftware,KiCad,Pcbnew,7.0.10-7.0.10~ubuntu22.04.1*
G04 #@! TF.CreationDate,2024-01-14T22:21:32+01:00*
G04 #@! TF.ProjectId,pico-GPU,7069636f-2d47-4505-952e-6b696361645f,rev?*
G04 #@! TF.SameCoordinates,Original*
G04 #@! TF.FileFunction,Soldermask,Bot*
G04 #@! TF.FilePolarity,Negative*
%FSLAX46Y46*%
G04 Gerber Fmt 4.6, Leading zero omitted, Abs format (unit mm)*
G04 Created by KiCad (PCBNEW 7.0.10-7.0.10~ubuntu22.04.1) date 2024-01-14 22:21:32*
%MOMM*%
%LPD*%
G01*
G04 APERTURE LIST*
G04 Aperture macros list*
%AMRoundRect*
0 Rectangle with rounded corners*
0 $1 Rounding radius*
0 $2 $3 $4 $5 $6 $7 $8 $9 X,Y pos of 4 corners*
0 Add a 4 corners polygon primitive as box body*
4,1,4,$2,$3,$4,$5,$6,$7,$8,$9,$2,$3,0*
0 Add four circle primitives for the rounded corners*
1,1,$1+$1,$2,$3*
1,1,$1+$1,$4,$5*
1,1,$1+$1,$6,$7*
1,1,$1+$1,$8,$9*
0 Add four rect primitives between the rounded corners*
20,1,$1+$1,$2,$3,$4,$5,0*
20,1,$1+$1,$4,$5,$6,$7,0*
20,1,$1+$1,$6,$7,$8,$9,0*
20,1,$1+$1,$8,$9,$2,$3,0*%
G04 Aperture macros list end*
%ADD10C,0.200000*%
%ADD11O,3.500000X3.500000*%
%ADD12R,1.905000X2.000000*%
%ADD13O,1.905000X2.000000*%
%ADD14O,3.300000X1.500000*%
%ADD15O,2.300000X1.500000*%
%ADD16O,1.700000X1.700000*%
%ADD17R,1.700000X1.700000*%
%ADD18O,1.800000X1.800000*%
%ADD19O,1.500000X1.500000*%
%ADD20RoundRect,0.218750X-0.256250X0.218750X-0.256250X-0.218750X0.256250X-0.218750X0.256250X0.218750X0*%
%ADD21RoundRect,0.218750X0.256250X-0.218750X0.256250X0.218750X-0.256250X0.218750X-0.256250X-0.218750X0*%
G04 APERTURE END LIST*
D10*
X120527800Y-193921800D02*
X109578200Y-193921800D01*
X109629000Y-188574200D01*
X120578600Y-188574200D01*
X120527800Y-193921800D01*
G36*
X120527800Y-193921800D02*
G01*
X109578200Y-193921800D01*
X109629000Y-188574200D01*
X120578600Y-188574200D01*
X120527800Y-193921800D01*
G37*
G36*
X105825000Y-189625000D02*
G01*
X97825000Y-189625000D01*
X97825000Y-186125000D01*
X105825000Y-186125000D01*
X105825000Y-189625000D01*
G37*
X129519400Y-193921800D02*
X122684600Y-193921800D01*
X122735400Y-188574200D01*
X129570200Y-188574200D01*
X129519400Y-193921800D01*
G36*
X129519400Y-193921800D02*
G01*
X122684600Y-193921800D01*
X122735400Y-188574200D01*
X129570200Y-188574200D01*
X129519400Y-193921800D01*
G37*
D11*
X71915000Y-184985000D03*
D12*
X74455000Y-169185000D03*
D13*
X71915000Y-169185000D03*
X69375000Y-169185000D03*
D14*
X74875000Y-155165000D03*
X74875000Y-140665000D03*
D15*
X68915000Y-155165000D03*
X68915000Y-140665000D03*
D16*
X100615000Y-149360000D03*
D17*
X100615000Y-146820000D03*
D16*
X100615000Y-144280000D03*
X148645000Y-155710000D03*
X146105000Y-155710000D03*
D17*
X143565000Y-155710000D03*
D16*
X141025000Y-155710000D03*
X138485000Y-155710000D03*
X135945000Y-155710000D03*
X133405000Y-155710000D03*
D17*
X130865000Y-155710000D03*
D16*
X128325000Y-155710000D03*
X125785000Y-155710000D03*
X123245000Y-155710000D03*
X120705000Y-155710000D03*
D17*
X118165000Y-155710000D03*
D16*
X115625000Y-155710000D03*
X113085000Y-155710000D03*
X110545000Y-155710000D03*
X108005000Y-155710000D03*
D17*
X105465000Y-155710000D03*
D16*
X102925000Y-155710000D03*
X100385000Y-155710000D03*
X100385000Y-137930000D03*
X102925000Y-137930000D03*
D17*
X105465000Y-137930000D03*
D16*
X108005000Y-137930000D03*
X110545000Y-137930000D03*
X113085000Y-137930000D03*
X115625000Y-137930000D03*
D17*
X118165000Y-137930000D03*
D16*
X120705000Y-137930000D03*
X123245000Y-137930000D03*
X125785000Y-137930000D03*
X128325000Y-137930000D03*
D17*
X130865000Y-137930000D03*
D16*
X133405000Y-137930000D03*
X135945000Y-137930000D03*
X138485000Y-137930000D03*
X141025000Y-137930000D03*
D17*
X143565000Y-137930000D03*
D16*
X146105000Y-137930000D03*
X148645000Y-137930000D03*
D18*
X148515000Y-149545000D03*
D19*
X145485000Y-149245000D03*
X145485000Y-144395000D03*
D18*
X148515000Y-144095000D03*
D20*
X126875000Y-182337500D03*
X126875000Y-183912500D03*
D21*
X128375000Y-183912500D03*
X128375000Y-182337500D03*
M02*
